<svg width="5741" height="911" viewBox="0 0 5741 911" fill="none" xmlns="http://www.w3.org/2000/svg">
<path d="M2967.07 492.815C2964.53 493.233 2962.02 493.831 2959.57 494.605L2961.25 505.605C2963.33 504.903 2965.46 504.382 2967.63 504.045C2970.48 503.577 2973.36 503.353 2976.25 503.375C2978.21 503.314 2980.16 503.616 2982.01 504.265C2983.4 504.761 2984.64 505.594 2985.62 506.688C2986.61 507.783 2987.31 509.104 2987.66 510.535C2988.04 511.997 2988.23 513.503 2988.22 515.015V517.255C2986.49 516.809 2984.73 516.475 2982.96 516.255C2981.4 516.068 2979.83 515.971 2978.26 515.965C2975.16 515.956 2972.06 516.274 2969.02 516.915C2966.26 517.477 2963.63 518.541 2961.25 520.055C2959.04 521.476 2957.21 523.42 2955.93 525.715C2954.53 528.329 2953.84 531.262 2953.93 534.225C2953.83 537.264 2954.42 540.286 2955.66 543.065C2956.75 545.378 2958.41 547.38 2960.48 548.885C2962.71 550.467 2965.25 551.573 2967.93 552.135C2971.09 552.83 2974.32 553.166 2977.55 553.135C2982.33 553.174 2987.1 552.856 2991.83 552.185C2996.04 551.555 2999.2 551.015 3001.28 550.565V515.095C3001.31 511.904 3000.92 508.723 3000.11 505.635C2999.41 502.913 2998.07 500.399 2996.19 498.305C2994.17 496.158 2991.65 494.541 2988.86 493.595C2985.22 492.385 2981.39 491.817 2977.55 491.915C2974.02 491.897 2970.5 492.198 2967.03 492.815M2970.49 540.565C2968.49 539.325 2967.49 537.115 2967.49 533.905C2967.44 532.459 2967.83 531.033 2968.61 529.815C2969.37 528.73 2970.41 527.865 2971.61 527.305C2972.92 526.684 2974.32 526.266 2975.75 526.065C2977.25 525.847 2978.77 525.736 2980.29 525.735C2981.86 525.725 2983.43 525.835 2984.99 526.065C2986.08 526.222 2987.17 526.45 2988.23 526.745V541.745C2985.09 542.274 2981.9 542.502 2978.72 542.425C2975.88 542.563 2973.05 541.924 2970.54 540.575M2911.54 465.065L2898 467.295V551.935H2911.55V525.065C2913.74 526.709 2915.8 528.525 2917.7 530.495C2919.79 532.615 2921.85 534.871 2923.86 537.265C2925.87 539.658 2927.76 542.121 2929.52 544.655C2931.27 547.195 2932.82 549.655 2934.17 551.935H2949.84C2948.51 549.395 2946.84 546.631 2944.84 543.645C2942.84 540.658 2940.68 537.658 2938.36 534.645C2936.04 531.665 2933.66 528.848 2931.21 526.195C2929.02 523.791 2926.69 521.53 2924.21 519.425C2928.38 515.165 2932.53 510.798 2936.66 506.325C2940.79 501.851 2944.72 497.518 2948.45 493.325H2932.45C2931.26 494.745 2929.83 496.411 2928.14 498.325C2926.46 500.235 2924.68 502.215 2922.82 504.265C2920.96 506.315 2919.05 508.365 2917.11 510.415C2915.17 512.465 2913.34 514.415 2911.63 516.185L2911.54 465.065ZM2853.29 541.065C2850.84 540.439 2848.42 539.654 2846.07 538.715L2843.7 550.005C2845.86 550.816 2848.07 551.507 2850.31 552.075C2854.38 553.039 2858.55 553.473 2862.73 553.365C2870.41 553.365 2876.33 551.928 2880.48 549.055C2884.63 546.181 2886.7 541.945 2886.69 536.345C2886.74 534.064 2886.4 531.791 2885.69 529.625C2885.01 527.743 2883.92 526.035 2882.5 524.625C2880.87 523.043 2879 521.724 2876.96 520.715C2874.31 519.374 2871.58 518.195 2868.79 517.185C2867.11 516.602 2865.47 515.935 2863.86 515.185C2862.71 514.667 2861.62 514.026 2860.61 513.275C2859.87 512.746 2859.27 512.037 2858.88 511.215C2858.53 510.401 2858.35 509.521 2858.37 508.635C2858.33 507.743 2858.56 506.861 2859.02 506.096C2859.48 505.33 2860.15 504.715 2860.95 504.325C2863.04 503.308 2865.35 502.827 2867.67 502.925C2870.38 502.887 2873.09 503.169 2875.73 503.765C2877.68 504.21 2879.6 504.829 2881.44 505.615L2883.9 494.615C2878.45 492.783 2872.74 491.838 2866.99 491.815C2860.2 491.815 2854.83 493.365 2850.87 496.465C2848.94 497.955 2847.39 499.887 2846.36 502.098C2845.33 504.31 2844.84 506.736 2844.94 509.175C2844.87 511.573 2845.31 513.959 2846.23 516.175C2847.05 518.029 2848.25 519.689 2849.76 521.045C2851.36 522.459 2853.15 523.643 2855.07 524.565C2857.27 525.638 2859.53 526.592 2861.84 527.425C2864.89 528.438 2867.81 529.829 2870.52 531.565C2871.32 532.084 2871.99 532.795 2872.45 533.636C2872.91 534.476 2873.15 535.417 2873.15 536.375C2873.22 537.273 2873.02 538.172 2872.58 538.959C2872.15 539.747 2871.49 540.388 2870.69 540.805C2869.05 541.665 2866.43 542.085 2862.85 542.085C2859.62 542.129 2856.41 541.753 2853.28 540.965M2835.57 541.755C2834.07 541.569 2832.59 541.234 2831.15 540.755C2830.09 540.41 2829.15 539.789 2828.41 538.955C2827.71 538.134 2827.23 537.156 2827 536.105C2826.72 534.74 2826.59 533.348 2826.61 531.955V465.055L2813.08 467.295V534.685C2813.04 537.309 2813.36 539.927 2814.03 542.465C2814.6 544.631 2815.73 546.607 2817.32 548.185C2819.12 549.838 2821.29 551.044 2823.65 551.705C2826.91 552.61 2830.27 553.065 2833.65 553.055L2835.57 541.755ZM2783.57 536.485C2782.34 538.087 2780.75 539.384 2778.93 540.277C2777.12 541.169 2775.12 541.633 2773.1 541.633C2771.08 541.633 2769.08 541.169 2767.27 540.277C2765.45 539.384 2763.86 538.087 2762.63 536.485C2760.13 533.051 2758.88 528.385 2758.88 522.485C2758.88 516.585 2760.13 511.975 2762.63 508.655C2763.88 507.068 2765.47 505.785 2767.28 504.903C2769.09 504.021 2771.08 503.563 2773.1 503.563C2775.12 503.563 2777.11 504.021 2778.92 504.903C2780.74 505.785 2782.32 507.068 2783.57 508.655C2786.07 512.055 2787.32 516.665 2787.32 522.485C2787.32 528.305 2786.07 532.971 2783.57 536.485ZM2799.07 510.005C2797.81 506.426 2795.85 503.132 2793.31 500.315C2790.83 497.624 2787.8 495.505 2784.42 494.105C2780.81 492.62 2776.95 491.876 2773.05 491.915C2769.17 491.87 2765.32 492.615 2761.74 494.105C2758.37 495.52 2755.33 497.637 2752.84 500.315C2750.27 503.123 2748.28 506.417 2747 510.005C2745.58 514.048 2744.88 518.309 2744.93 522.595C2744.88 526.9 2745.58 531.18 2747 535.245C2748.26 538.84 2750.22 542.15 2752.77 544.985C2755.24 547.677 2758.26 549.814 2761.62 551.255C2765.23 552.781 2769.12 553.544 2773.04 553.495C2776.98 553.542 2780.88 552.779 2784.51 551.255C2787.89 549.828 2790.93 547.689 2793.41 544.985C2795.95 542.16 2797.9 538.845 2799.12 535.245C2800.51 531.174 2801.18 526.895 2801.12 522.595C2801.17 518.308 2800.47 514.046 2799.04 510.005M2712.22 486.375C2714.36 486.717 2716.42 487.417 2718.33 488.445C2720 489.391 2721.38 490.773 2722.33 492.445C2723.36 494.414 2723.86 496.615 2723.78 498.835C2723.78 504.168 2721.96 507.768 2718.31 509.635C2714.66 511.501 2709.44 512.451 2702.63 512.485H2695.8V486.105C2698.11 485.885 2701.06 485.765 2704.65 485.765C2707.18 485.751 2709.71 485.955 2712.2 486.375M2692.66 474.005C2688.99 474.218 2685.34 474.722 2681.75 475.515V551.985H2695.85V524.615H2702.9C2707.98 524.672 2713.05 524.183 2718.02 523.155C2722 522.361 2725.8 520.82 2729.21 518.615C2732.21 516.64 2734.63 513.899 2736.21 510.675C2737.91 507.014 2738.73 503.009 2738.62 498.975C2738.62 490.241 2735.62 483.825 2729.62 479.725C2723.62 475.625 2714.98 473.571 2703.7 473.565C2700.35 473.565 2696.7 473.695 2692.7 473.955" fill="white"/>
<path d="M3408.6 363.823C3406.06 364.243 3403.55 364.844 3401.1 365.622L3402.78 376.622C3404.86 375.913 3406.99 375.388 3409.16 375.053C3412.01 374.586 3414.89 374.362 3417.77 374.383C3419.73 374.322 3421.69 374.623 3423.54 375.273C3424.96 375.796 3426.23 376.661 3427.24 377.793C3428.18 378.881 3428.86 380.166 3429.24 381.553C3429.61 383.014 3429.79 384.515 3429.79 386.023V388.263C3428.05 387.827 3426.29 387.493 3424.52 387.263C3422.96 387.079 3421.39 386.985 3419.82 386.983C3416.72 386.968 3413.62 387.286 3410.59 387.932C3407.83 388.494 3405.19 389.556 3402.81 391.062C3400.6 392.487 3398.78 394.43 3397.49 396.723C3396.09 399.336 3395.4 402.27 3395.49 405.233C3395.4 408.272 3395.99 411.293 3397.22 414.073C3398.32 416.384 3399.97 418.385 3402.04 419.893C3404.28 421.47 3406.81 422.575 3409.49 423.143C3412.65 423.838 3415.88 424.174 3419.12 424.143C3423.89 424.176 3428.66 423.859 3433.39 423.193C3437.6 422.553 3440.76 422.012 3442.85 421.562V386.113C3442.88 382.917 3442.49 379.732 3441.67 376.643C3440.97 373.922 3439.62 371.408 3437.75 369.312C3435.73 367.17 3433.21 365.556 3430.42 364.613C3426.78 363.401 3422.96 362.832 3419.12 362.932C3415.59 362.915 3412.07 363.214 3408.59 363.823M3412.06 411.573C3410.06 410.343 3409.06 408.133 3409.06 404.913C3409 403.466 3409.39 402.037 3410.18 400.823C3410.94 399.732 3411.97 398.864 3413.18 398.312C3414.49 397.691 3415.89 397.272 3417.33 397.073C3418.83 396.855 3420.34 396.744 3421.86 396.743C3423.43 396.732 3425 396.843 3426.56 397.073C3427.66 397.231 3428.74 397.459 3429.81 397.753V412.753C3426.67 413.277 3423.48 413.501 3420.3 413.423C3417.46 413.567 3414.63 412.927 3412.12 411.573M3352.56 399.652C3352.51 403.131 3352.85 406.606 3353.56 410.013C3354.13 412.811 3355.32 415.447 3357.03 417.733C3358.77 419.932 3361.07 421.616 3363.69 422.603C3367.04 423.815 3370.59 424.385 3374.15 424.283C3377.18 424.334 3380.21 423.978 3383.15 423.223C3385.24 422.662 3387.3 421.969 3389.31 421.152L3387 410.402C3385.88 410.842 3384.37 411.333 3382.47 411.863C3380.33 412.407 3378.13 412.669 3375.92 412.643C3372.34 412.643 3369.79 411.643 3368.3 409.643C3366.81 407.643 3366.07 404.262 3366.07 399.562V375.693H3386.89V364.383H3366.07V346.693L3352.52 348.932L3352.56 399.652ZM3336.49 341.103C3334.91 339.634 3332.82 338.832 3330.66 338.863C3328.47 338.821 3326.35 339.623 3324.73 341.103C3323.9 341.888 3323.25 342.845 3322.82 343.907C3322.4 344.969 3322.21 346.11 3322.27 347.253C3322.22 348.379 3322.41 349.504 3322.83 350.549C3323.26 351.593 3323.91 352.533 3324.73 353.303C3326.34 354.787 3328.47 355.59 3330.66 355.543C3332.82 355.578 3334.91 354.775 3336.49 353.303C3337.32 352.534 3337.96 351.593 3338.39 350.549C3338.82 349.504 3339.01 348.38 3338.96 347.253C3339.02 346.11 3338.83 344.968 3338.4 343.906C3337.97 342.844 3337.32 341.888 3336.49 341.103ZM3337.49 364.383H3323.9V422.932H3337.45L3337.49 364.383ZM3312.97 412.863C3311.46 412.705 3309.98 412.386 3308.54 411.913C3307.48 411.569 3306.54 410.95 3305.8 410.122C3305.11 409.297 3304.63 408.316 3304.41 407.263C3304.12 405.903 3303.98 404.512 3304.01 403.122V336.062L3290.47 338.303V405.703C3290.45 408.329 3290.78 410.947 3291.47 413.483C3292.04 415.645 3293.18 417.613 3294.77 419.182C3296.57 420.844 3298.74 422.055 3301.1 422.713C3304.36 423.62 3307.72 424.071 3311.1 424.053L3312.97 412.863ZM3260.68 407.603C3259.45 409.204 3257.86 410.502 3256.05 411.394C3254.23 412.287 3252.24 412.751 3250.22 412.751C3248.19 412.751 3246.2 412.287 3244.38 411.394C3242.57 410.502 3240.98 409.204 3239.75 407.603C3237.24 404.173 3236 399.503 3236 393.603C3236 387.703 3237.24 383.173 3239.75 379.783C3240.99 378.194 3242.58 376.91 3244.39 376.027C3246.21 375.144 3248.2 374.685 3250.22 374.685C3252.23 374.685 3254.22 375.144 3256.04 376.027C3257.85 376.91 3259.44 378.194 3260.68 379.783C3263.18 383.173 3264.43 387.783 3264.43 393.603C3264.43 399.423 3263.18 404.173 3260.68 407.603ZM3276.2 381.003C3274.94 377.423 3272.97 374.129 3270.43 371.312C3267.95 368.622 3264.92 366.503 3261.54 365.103C3257.94 363.622 3254.07 362.881 3250.18 362.923C3246.3 362.873 3242.45 363.615 3238.86 365.103C3235.49 366.521 3232.46 368.636 3229.96 371.312C3227.39 374.122 3225.41 377.417 3224.14 381.003C3222.71 385.045 3222.01 389.306 3222.07 393.592C3222.02 397.9 3222.72 402.185 3224.14 406.253C3225.4 409.849 3227.36 413.159 3229.91 415.993C3232.38 418.68 3235.4 420.817 3238.75 422.263C3246.09 425.236 3254.3 425.236 3261.64 422.263C3265.02 420.831 3268.06 418.693 3270.55 415.993C3273.09 413.163 3275.03 409.851 3276.26 406.253C3277.64 402.175 3278.31 397.894 3278.26 393.592C3278.32 389.306 3277.62 385.045 3276.2 381.003ZM3210.56 381.003C3209.29 377.409 3207.27 374.125 3204.63 371.372C3201.99 368.684 3198.8 366.603 3195.28 365.273C3191.3 363.801 3187.09 363.079 3182.85 363.143C3178.58 363.125 3174.31 363.459 3170.09 364.143C3166.09 364.809 3162.69 365.516 3159.9 366.263V443.622H3173.45V420.923C3175.27 421.873 3177.18 422.624 3179.16 423.163C3181.64 423.853 3184.2 424.19 3186.77 424.163C3190.56 424.217 3194.31 423.453 3197.77 421.923C3200.93 420.499 3203.7 418.35 3205.87 415.652C3208.14 412.791 3209.83 409.523 3210.87 406.023C3212.06 402.025 3212.64 397.873 3212.6 393.703C3212.67 389.38 3211.97 385.08 3210.53 381.003M3195.31 407.483C3193.03 410.833 3189.43 412.483 3184.51 412.483C3182.35 412.495 3180.21 412.133 3178.18 411.413C3176.5 410.857 3174.9 410.087 3173.42 409.122V375.693C3174.76 375.324 3176.13 375.08 3177.51 374.963C3178.89 374.853 3180.21 374.803 3181.51 374.803C3187.56 374.803 3191.94 376.469 3194.67 379.803C3197.4 383.136 3198.76 387.835 3198.76 393.902C3198.76 399.575 3197.62 404.093 3195.34 407.453M3115.2 412.043C3112.75 411.41 3110.34 410.621 3107.99 409.682L3105.63 421.003C3107.79 421.812 3110 422.503 3112.24 423.073C3116.31 424.037 3120.48 424.47 3124.66 424.363C3132.35 424.363 3138.26 422.926 3142.4 420.053C3146.54 417.179 3148.61 412.946 3148.62 407.353C3148.68 405.072 3148.34 402.798 3147.62 400.633C3146.95 398.748 3145.85 397.039 3144.43 395.633C3142.8 394.052 3140.93 392.734 3138.89 391.723C3136.24 390.384 3133.51 389.205 3130.72 388.193C3129.04 387.617 3127.4 386.95 3125.79 386.193C3124.65 385.675 3123.56 385.039 3122.55 384.293C3121.81 383.752 3121.22 383.042 3120.81 382.223C3120.47 381.407 3120.3 380.528 3120.31 379.643C3120.28 378.753 3120.5 377.87 3120.96 377.105C3121.41 376.34 3122.08 375.725 3122.88 375.333C3124.97 374.319 3127.28 373.837 3129.6 373.932C3132.31 373.894 3135.02 374.177 3137.66 374.773C3139.61 375.213 3141.52 375.832 3143.36 376.622L3145.83 365.622C3143.53 364.836 3141.17 364.222 3138.78 363.783C3135.54 363.135 3132.24 362.817 3128.93 362.833C3122.14 362.833 3116.77 364.379 3112.81 367.473C3110.88 368.963 3109.33 370.893 3108.3 373.105C3107.27 375.316 3106.78 377.743 3106.88 380.182C3106.81 382.58 3107.25 384.967 3108.17 387.182C3108.98 389.037 3110.18 390.698 3111.69 392.053C3113.29 393.467 3115.08 394.652 3117.01 395.573C3119.21 396.646 3121.47 397.599 3123.78 398.432C3126.83 399.449 3129.75 400.841 3132.46 402.573C3133.27 403.093 3133.93 403.807 3134.39 404.648C3134.85 405.49 3135.09 406.434 3135.09 407.393C3135.16 408.289 3134.96 409.186 3134.52 409.971C3134.09 410.757 3133.43 411.396 3132.63 411.812C3130.98 412.663 3128.37 413.103 3124.79 413.103C3121.56 413.147 3118.34 412.77 3115.21 411.983M3080 407.603C3078.77 409.204 3077.18 410.502 3075.37 411.394C3073.55 412.287 3071.56 412.751 3069.54 412.751C3067.51 412.751 3065.52 412.287 3063.7 411.394C3061.89 410.502 3060.3 409.204 3059.07 407.603C3056.56 404.173 3055.32 399.503 3055.32 393.603C3055.32 387.703 3056.56 383.173 3059.07 379.783C3060.31 378.194 3061.9 376.91 3063.71 376.027C3065.53 375.144 3067.52 374.685 3069.54 374.685C3071.55 374.685 3073.54 375.144 3075.36 376.027C3077.17 376.91 3078.76 378.194 3080 379.783C3082.5 383.173 3083.75 387.783 3083.75 393.603C3083.75 399.423 3082.5 404.173 3080 407.603ZM3095.6 381.003C3094.33 377.427 3092.37 374.135 3089.83 371.312C3087.35 368.619 3084.31 366.501 3080.93 365.103C3077.32 363.62 3073.46 362.879 3069.56 362.923C3065.68 362.875 3061.84 363.617 3058.26 365.103C3054.89 366.518 3051.85 368.635 3049.36 371.312C3046.78 374.112 3044.8 377.411 3043.54 381.003C3042.11 385.044 3041.41 389.305 3041.47 393.592C3041.41 397.9 3042.11 402.187 3043.54 406.253C3044.79 409.852 3046.75 413.164 3049.3 415.993C3051.78 418.681 3054.79 420.818 3058.15 422.263C3061.76 423.782 3065.64 424.541 3069.56 424.493C3073.5 424.537 3077.4 423.778 3081.04 422.263C3084.42 420.828 3087.45 418.691 3089.93 415.993C3092.48 413.172 3094.43 409.856 3095.65 406.253C3097.03 402.176 3097.71 397.894 3097.65 393.592C3097.71 389.307 3097.01 385.047 3095.6 381.003ZM3030 381.003C3028.73 377.41 3026.71 374.126 3024.08 371.372C3021.44 368.684 3018.25 366.604 3014.72 365.273C3010.75 363.803 3006.54 363.08 3002.3 363.143C2998.03 363.125 2993.76 363.459 2989.54 364.143C2985.5 364.809 2982.1 365.516 2979.35 366.263V443.622H2992.9V420.923C2994.71 421.873 2996.62 422.624 2998.6 423.163C3001.08 423.853 3003.64 424.189 3006.21 424.163C3010 424.222 3013.75 423.458 3017.21 421.923C3020.37 420.502 3023.16 418.352 3025.33 415.652C3027.6 412.791 3029.29 409.523 3030.33 406.023C3031.53 402.027 3032.11 397.873 3032.07 393.703C3032.13 389.38 3031.43 385.081 3030 381.003ZM3014.78 407.483C3012.5 410.833 3008.9 412.483 3003.98 412.483C3001.82 412.495 2999.68 412.133 2997.65 411.413C2995.98 410.855 2994.38 410.085 2992.9 409.122V375.693C2994.24 375.325 2995.6 375.081 2996.98 374.963C2998.36 374.853 2999.69 374.803 3000.98 374.803C3007.02 374.803 3011.4 376.469 3014.13 379.803C3016.86 383.136 3018.22 387.835 3018.22 393.902C3018.22 399.572 3017.07 404.093 3014.8 407.453M2967.26 364.342H2922.82V375.652H2949.82C2947.82 378.038 2945.52 380.839 2942.93 384.053C2940.34 387.266 2937.74 390.642 2935.14 394.182C2932.54 397.722 2929.99 401.253 2927.53 404.763C2925.31 407.899 2923.25 411.151 2921.37 414.503V422.893H2967.95V411.592H2937.72C2939.96 408.165 2942.48 404.563 2945.27 400.783C2948.06 397.003 2950.85 393.383 2953.62 389.923C2956.38 386.463 2958.97 383.303 2961.4 380.473C2963.83 377.643 2965.78 375.473 2967.27 373.863L2967.26 364.342ZM2869.45 406.003C2870.55 409.604 2872.4 412.928 2874.89 415.753C2877.42 418.555 2880.55 420.738 2884.06 422.133C2888.22 423.744 2892.65 424.522 2897.11 424.423C2900.25 424.43 2903.37 424.128 2906.45 423.523C2908.78 423.143 2911.06 422.471 2913.22 421.523L2911.32 410.333C2909.44 411.074 2907.49 411.634 2905.5 412.003C2903.25 412.46 2900.96 412.687 2898.67 412.682C2892.48 412.682 2888.08 410.983 2885.45 407.583C2882.85 404.183 2881.54 399.583 2881.54 393.753C2881.54 387.713 2882.92 383.046 2885.68 379.753C2888.44 376.423 2892.48 374.753 2897.77 374.753C2899.9 374.742 2902.02 374.969 2904.1 375.432C2905.92 375.824 2907.7 376.387 2909.42 377.113L2912.32 366.033C2907.34 364.013 2902.02 362.994 2896.65 363.033C2892.5 362.967 2888.38 363.767 2884.56 365.383C2881.09 366.868 2877.98 369.08 2875.44 371.872C2872.89 374.724 2870.93 378.056 2869.68 381.673C2868.32 385.573 2867.64 389.681 2867.68 393.812C2867.64 397.966 2868.24 402.103 2869.47 406.073M2819.35 387.993C2819.57 386.286 2819.99 384.609 2820.58 382.993C2821.15 381.398 2822 379.917 2823.09 378.622C2824.2 377.337 2825.56 376.29 2827.09 375.543C2828.8 374.731 2830.68 374.329 2832.58 374.372C2834.38 374.323 2836.16 374.686 2837.79 375.432C2839.22 376.123 2840.48 377.116 2841.48 378.342C2842.52 379.635 2843.3 381.121 2843.77 382.713C2844.3 384.432 2844.56 386.223 2844.55 388.023L2819.35 387.993ZM2807 406.092C2808.12 409.659 2809.99 412.945 2812.49 415.723C2815.1 418.538 2818.31 420.721 2821.89 422.103C2826.18 423.717 2830.75 424.495 2835.33 424.393C2837.31 424.396 2839.29 424.283 2841.26 424.053C2843.21 423.833 2845.01 423.553 2846.69 423.223C2848.2 422.926 2849.7 422.552 2851.17 422.103C2852.22 421.789 2853.25 421.395 2854.24 420.923L2852.46 409.842C2850.37 410.671 2848.21 411.308 2846.01 411.743C2843.05 412.367 2840.03 412.669 2837.01 412.643C2831.41 412.643 2827.13 411.353 2824.18 408.773C2821.23 406.193 2819.56 402.556 2819.18 397.863H2857.8C2857.88 397.113 2857.93 396.272 2857.97 395.342C2858.01 394.412 2858.03 393.573 2858.03 392.823C2858.03 382.903 2855.77 375.438 2851.25 370.432C2846.73 365.425 2840.44 362.925 2832.38 362.932C2828.93 362.946 2825.51 363.625 2822.31 364.932C2819.03 366.24 2816.05 368.223 2813.58 370.753C2810.91 373.533 2808.83 376.831 2807.48 380.443C2805.86 384.77 2805.08 389.364 2805.18 393.983C2805.14 398.101 2805.74 402.201 2806.97 406.133M2797.39 364.423H2753V375.733H2780C2778 378.119 2775.71 380.919 2773.12 384.133C2770.53 387.346 2767.94 390.723 2765.34 394.263C2762.73 397.803 2760.19 401.328 2757.72 404.842C2755.5 407.978 2753.45 411.231 2751.57 414.583V422.973H2798.15V411.673H2767.92C2770.16 408.246 2772.68 404.643 2775.47 400.863C2778.26 397.083 2781.04 393.463 2783.81 390.003C2786.57 386.543 2789.17 383.383 2791.6 380.553C2794.03 377.723 2795.98 375.553 2797.47 373.943L2797.39 364.423ZM2711.71 357.423C2713.82 357.758 2715.85 358.459 2717.71 359.493C2719.34 360.413 2720.68 361.771 2721.57 363.413C2722.51 365.27 2722.97 367.332 2722.91 369.413C2722.99 371.581 2722.53 373.735 2721.57 375.682C2720.65 377.351 2719.26 378.715 2717.57 379.603C2715.53 380.656 2713.31 381.334 2711.03 381.603C2708.02 381.999 2704.99 382.187 2701.96 382.163H2695.8V357.113C2698.34 356.893 2701.1 356.773 2704.09 356.773C2706.64 356.757 2709.19 356.965 2711.7 357.393M2692.7 344.963C2689 345.197 2685.33 345.702 2681.7 346.473V422.932H2695.8V393.603H2704.8C2705.55 393.603 2706.44 393.603 2707.49 393.493C2708.9 395.283 2710.43 397.322 2712.07 399.592C2713.71 401.862 2715.37 404.292 2717.07 406.872C2718.77 409.452 2720.41 412.103 2722.07 414.823C2723.73 417.543 2725.24 420.252 2726.65 422.932H2742.44C2741.11 420.032 2739.58 417.069 2737.85 414.043C2736.12 411.016 2734.33 408.066 2732.48 405.193C2730.61 402.323 2728.79 399.653 2726.99 397.193C2725.19 394.733 2723.6 392.633 2722.18 390.913C2732.55 387.193 2737.74 380.066 2737.74 369.533C2737.74 361.106 2734.77 354.839 2728.84 350.733C2722.91 346.626 2714.34 344.573 2703.15 344.573C2700.09 344.573 2696.62 344.703 2692.73 344.963" fill="white"/>
<path d="M2005.25 262.461H2584.22V455.961H2005.25V262.461Z" fill="white"/>
<path d="M2005.25 455.188H2584.22V647.918H2005.25V455.188Z" fill="#BB0A30"/>
<path d="M2585 261.68H2004.47V648.68H2585V261.68ZM2583.18 646.86H2006.3V263.5H2583.17L2583.18 646.86Z" fill="#808285"/>
<path d="M4763.23 541.582C4761.23 540.352 4760.23 538.133 4760.23 534.913C4760.17 533.463 4760.56 532.03 4761.35 530.813C4762.11 529.72 4763.14 528.847 4764.35 528.283C4765.67 527.671 4767.06 527.253 4768.5 527.043C4770.01 526.824 4771.53 526.713 4773.05 526.712C4774.63 526.701 4776.2 526.813 4777.76 527.043C4778.86 527.212 4779.95 527.439 4781.03 527.723V542.723C4777.87 543.247 4774.68 543.47 4771.48 543.392C4768.63 543.535 4765.8 542.892 4763.29 541.533M4759.8 493.643C4757.25 494.069 4754.74 494.67 4752.28 495.443L4753.96 506.443C4756.04 505.734 4758.18 505.208 4760.36 504.872C4763.22 504.404 4766.11 504.181 4769.01 504.203C4770.97 504.142 4772.93 504.442 4774.79 505.092C4776.22 505.617 4777.49 506.486 4778.5 507.622C4779.44 508.703 4780.13 509.986 4780.5 511.372C4780.88 512.841 4781.07 514.354 4781.07 515.873V518.113C4779.33 517.695 4777.56 517.378 4775.78 517.163C4774.21 516.979 4772.64 516.886 4771.06 516.883C4767.95 516.885 4764.85 517.22 4761.81 517.883C4759.03 518.438 4756.38 519.509 4754 521.043C4751.79 522.47 4749.96 524.416 4748.67 526.712C4747.27 529.328 4746.58 532.267 4746.67 535.233C4746.57 538.283 4747.17 541.315 4748.41 544.103C4749.51 546.421 4751.17 548.428 4753.24 549.943C4755.49 551.514 4758.03 552.619 4760.71 553.193C4763.88 553.893 4767.12 554.229 4770.37 554.193C4772.09 554.193 4773.75 554.192 4775.37 554.082C4776.99 553.972 4778.53 553.893 4780.03 553.743C4778.62 554.78 4777.34 555.985 4776.22 557.332C4774.98 558.626 4773.92 560.084 4773.07 561.663C4772.25 563.16 4771.83 564.838 4771.83 566.543C4771.78 567.838 4772.03 569.128 4772.57 570.308C4773.11 571.489 4773.91 572.527 4774.92 573.342C4776.98 575.022 4780.32 575.863 4784.97 575.863C4786.64 575.861 4788.32 575.73 4789.97 575.473C4791.44 575.262 4792.89 574.907 4794.29 574.413L4793.17 565.303C4792.23 565.658 4791.25 565.906 4790.25 566.043C4789.5 566.141 4788.75 566.194 4788 566.202C4785.38 566.202 4784.08 565.202 4784.08 563.202C4784.09 562.2 4784.4 561.225 4784.97 560.402C4785.7 559.348 4786.53 558.367 4787.45 557.473C4788.58 556.266 4789.8 555.143 4791.09 554.113C4792.32 553.113 4793.36 552.312 4794.18 551.642V516.003C4794.21 512.804 4793.82 509.616 4793 506.523C4792.3 503.79 4790.95 501.266 4789.07 499.163C4787.04 497.019 4784.52 495.402 4781.72 494.453C4778.07 493.234 4774.23 492.662 4770.38 492.763C4766.84 492.747 4763.31 493.044 4759.82 493.652M4703.75 465.812L4690.16 468.062V553.003H4703.75V526.003C4705.94 527.653 4708.01 529.472 4709.92 531.443C4712.02 533.569 4714.08 535.836 4716.09 538.243C4718.1 540.649 4719.99 543.118 4721.76 545.652C4723.52 548.202 4725.08 550.652 4726.42 552.952H4742.14C4740.63 550.093 4738.96 547.319 4737.14 544.642C4735.14 541.642 4732.98 538.642 4730.65 535.642C4728.32 532.642 4725.93 529.816 4723.48 527.163C4721.27 524.756 4718.91 522.488 4716.42 520.373C4720.6 516.106 4724.76 511.729 4728.91 507.243C4733.06 502.756 4737 498.423 4740.73 494.243H4724.67C4723.47 495.663 4722.03 497.329 4720.35 499.243C4718.66 501.143 4716.88 503.133 4715.01 505.193C4713.14 507.253 4711.24 509.303 4709.29 511.363C4707.34 513.423 4705.51 515.362 4703.79 517.152L4703.75 465.812ZM4645.33 542.053C4642.87 541.42 4640.44 540.632 4638.08 539.693L4635.72 551.043C4637.89 551.854 4640.1 552.548 4642.35 553.123C4646.43 554.082 4650.62 554.515 4654.81 554.413C4662.52 554.413 4668.46 552.972 4672.61 550.092C4676.76 547.212 4678.84 542.962 4678.84 537.342C4678.9 535.054 4678.56 532.775 4677.84 530.603C4677.16 528.719 4676.06 527.011 4674.64 525.603C4673 524.014 4671.12 522.689 4669.08 521.673C4666.42 520.335 4663.68 519.153 4660.88 518.133C4659.2 517.56 4657.55 516.892 4655.94 516.133C4654.79 515.616 4653.7 514.976 4652.69 514.223C4651.95 513.684 4651.35 512.973 4650.95 512.152C4650.6 511.335 4650.42 510.451 4650.44 509.562C4650.41 508.669 4650.63 507.785 4651.09 507.019C4651.55 506.252 4652.23 505.635 4653.03 505.243C4655.12 504.224 4657.43 503.742 4659.76 503.842C4662.48 503.804 4665.2 504.086 4667.85 504.682C4669.81 505.123 4671.73 505.743 4673.58 506.533L4676.05 495.533C4673.74 494.734 4671.37 494.115 4668.97 493.682C4665.72 493.018 4662.41 492.683 4659.09 492.682C4652.28 492.682 4646.89 494.235 4642.92 497.342C4640.97 498.831 4639.41 500.766 4638.37 502.982C4637.33 505.199 4636.83 507.634 4636.92 510.083C4636.85 512.482 4637.3 514.866 4638.22 517.082C4639.04 518.942 4640.25 520.609 4641.76 521.973C4643.36 523.395 4645.16 524.584 4647.1 525.503C4649.31 526.581 4651.57 527.539 4653.88 528.373C4656.94 529.383 4659.87 530.776 4662.58 532.522C4663.39 533.039 4664.05 533.753 4664.52 534.595C4664.98 535.438 4665.22 536.381 4665.22 537.342C4665.29 538.243 4665.1 539.146 4664.66 539.936C4664.22 540.727 4663.55 541.37 4662.75 541.783C4661.1 542.653 4658.49 543.082 4654.9 543.082C4651.66 543.124 4648.44 542.744 4645.3 541.952M4623.24 470.773C4621.66 469.296 4619.56 468.489 4617.4 468.523C4615.18 468.462 4613.03 469.269 4611.4 470.773C4610.56 471.559 4609.91 472.519 4609.48 473.585C4609.06 474.65 4608.87 475.796 4608.93 476.943C4608.88 478.073 4609.07 479.202 4609.5 480.25C4609.92 481.298 4610.57 482.241 4611.4 483.013C4613.03 484.506 4615.19 485.305 4617.4 485.243C4619.56 485.279 4621.65 484.48 4623.24 483.013C4624.07 482.241 4624.72 481.298 4625.14 480.25C4625.57 479.202 4625.76 478.073 4625.71 476.943C4625.77 475.796 4625.58 474.65 4625.16 473.585C4624.73 472.519 4624.08 471.559 4623.24 470.773ZM4618.81 568.233C4622.44 564.566 4624.25 558.899 4624.26 551.233V494.263H4610.66V551.193C4610.66 554.863 4610.03 557.613 4608.75 559.443C4607.47 561.273 4605.28 562.193 4602.13 562.193C4600.12 562.236 4598.11 561.968 4596.18 561.402L4594.39 572.533C4595.89 573.085 4597.45 573.44 4599.04 573.592C4600.4 573.754 4601.78 573.849 4603.15 573.873C4609.95 573.873 4615.17 572.039 4618.81 568.373M4558.33 517.842C4558.55 516.114 4558.97 514.418 4559.57 512.783C4560.14 511.186 4561 509.702 4562.09 508.402C4563.2 507.116 4564.56 506.07 4566.09 505.323C4567.8 504.501 4569.68 504.096 4571.58 504.143C4573.38 504.098 4575.16 504.464 4576.8 505.213C4578.23 505.904 4579.5 506.9 4580.51 508.133C4581.55 509.428 4582.33 510.912 4582.81 512.503C4583.34 514.232 4583.6 516.032 4583.59 517.842H4558.33ZM4545.98 536.082C4547.1 539.66 4548.98 542.958 4551.48 545.753C4554.09 548.58 4557.32 550.765 4560.92 552.142C4565.22 553.765 4569.79 554.549 4574.39 554.452C4576.38 554.45 4578.36 554.337 4580.34 554.113C4582.28 553.893 4584.1 553.602 4585.79 553.262C4587.31 552.975 4588.81 552.601 4590.28 552.142C4591.34 551.83 4592.37 551.436 4593.37 550.962L4591.57 539.853C4589.48 540.683 4587.32 541.319 4585.11 541.753C4582.15 542.379 4579.13 542.68 4576.11 542.652C4570.5 542.652 4566.21 541.363 4563.26 538.783C4560.26 536.203 4558.64 532.542 4558.26 527.842H4597C4597.07 527.092 4597.13 526.243 4597.17 525.313C4597.21 524.383 4597.22 523.533 4597.22 522.783C4597.22 512.836 4594.96 505.353 4590.44 500.333C4585.92 495.313 4579.61 492.803 4571.51 492.803C4568.05 492.817 4564.62 493.496 4561.41 494.803C4558.11 496.116 4555.13 498.106 4552.65 500.643C4549.97 503.43 4547.89 506.734 4546.53 510.353C4544.91 514.7 4544.13 519.313 4544.22 523.952C4544.18 528.077 4544.79 532.185 4546.02 536.123M4532.69 510.983C4531.4 507.375 4529.35 504.082 4526.69 501.323C4524.05 498.623 4520.85 496.534 4517.31 495.203C4513.33 493.723 4509.11 492.998 4504.86 493.062C4500.57 493.044 4496.28 493.378 4492.05 494.062C4488.01 494.729 4484.61 495.443 4481.84 496.203V573.793H4495.42V551.003C4497.24 551.96 4499.16 552.714 4501.15 553.253C4503.63 553.947 4506.2 554.284 4508.78 554.253C4512.58 554.315 4516.36 553.55 4519.84 552.012C4523.01 550.583 4525.8 548.43 4527.98 545.723C4530.25 542.852 4531.95 539.572 4532.98 536.063C4534.18 532.057 4534.76 527.892 4534.72 523.712C4534.78 519.376 4534.08 515.065 4532.65 510.973M4517.37 537.512C4515.08 540.892 4511.47 542.578 4506.53 542.572C4504.37 542.588 4502.23 542.229 4500.2 541.512C4498.51 540.948 4496.91 540.172 4495.42 539.202V505.603C4496.76 505.23 4498.13 504.984 4499.52 504.872C4500.9 504.762 4502.23 504.703 4503.52 504.703C4509.59 504.703 4513.99 506.389 4516.72 509.763C4519.44 513.123 4520.82 517.843 4520.82 523.913C4520.82 529.593 4519.68 534.116 4517.39 537.483M4451.69 537.603C4450.45 539.212 4448.86 540.516 4447.04 541.413C4445.22 542.311 4443.22 542.777 4441.19 542.777C4439.16 542.777 4437.16 542.311 4435.34 541.413C4433.52 540.516 4431.93 539.212 4430.69 537.603C4428.17 534.163 4426.91 529.496 4426.92 523.603C4426.93 517.709 4428.18 513.086 4430.69 509.733C4431.94 508.138 4433.53 506.849 4435.35 505.962C4437.17 505.076 4439.17 504.615 4441.19 504.615C4443.21 504.615 4445.21 505.076 4447.03 505.962C4448.85 506.849 4450.44 508.138 4451.69 509.733C4454.2 513.133 4455.46 517.756 4455.45 523.603C4455.44 529.449 4454.19 534.116 4451.69 537.603ZM4467.3 510.943C4466.03 507.355 4464.07 504.055 4461.52 501.233C4459.04 498.521 4455.99 496.391 4452.59 494.993C4448.98 493.507 4445.1 492.763 4441.2 492.803C4437.31 492.759 4433.45 493.504 4429.85 494.993C4426.47 496.412 4423.42 498.54 4420.93 501.233C4418.35 504.042 4416.37 507.345 4415.1 510.943C4413.66 514.994 4412.95 519.271 4413.01 523.572C4412.95 527.889 4413.66 532.183 4415.1 536.253C4416.35 539.862 4418.31 543.183 4420.87 546.022C4423.35 548.725 4426.37 550.87 4429.74 552.313C4433.36 553.849 4437.27 554.615 4441.2 554.563C4445.15 554.609 4449.07 553.844 4452.71 552.313C4456.1 550.876 4459.14 548.731 4461.63 546.022C4464.18 543.19 4466.13 539.866 4467.35 536.253C4468.74 532.171 4469.41 527.881 4469.35 523.572C4469.4 519.272 4468.7 514.998 4467.27 510.943M4408.57 495.053C4407.91 494.833 4407.01 494.583 4405.88 494.323C4404.75 494.063 4403.6 493.833 4402.41 493.643C4401.22 493.453 4400.01 493.303 4398.81 493.193C4397.61 493.083 4396.57 493.023 4395.67 493.023C4391.28 492.98 4386.89 493.416 4382.59 494.323C4379.26 495.017 4375.97 495.933 4372.76 497.062V553.003H4386.35V505.932C4387.51 505.6 4388.69 505.34 4389.88 505.152C4391.46 504.867 4393.06 504.717 4394.66 504.703C4396.98 504.676 4399.29 504.884 4401.57 505.323C4403.14 505.626 4404.69 506.02 4406.22 506.503L4408.57 495.053ZM4357.33 494.263H4343.75V541.753C4342.4 542.053 4341.02 542.243 4339.64 542.322C4337.81 542.472 4336.07 542.543 4334.43 542.543C4329.86 542.543 4326.66 541.209 4324.83 538.543C4322.99 535.853 4322.08 531.352 4322.08 525.072V494.263H4308.49V527.163C4308.45 530.866 4308.87 534.56 4309.73 538.163C4310.45 541.29 4311.85 544.222 4313.82 546.753C4315.85 549.235 4318.48 551.164 4321.46 552.363C4325.24 553.811 4329.27 554.491 4333.31 554.363C4337.94 554.397 4342.56 554.039 4347.12 553.293C4351.31 552.593 4354.71 551.893 4357.33 551.223V494.263ZM4298.69 553.003V541.003H4260.18V518.202H4292.07V506.393H4260.18V487.193H4296V475.193H4246V553.003H4298.69ZM4162.69 517.853C4162.92 516.127 4163.34 514.431 4163.93 512.793C4164.5 511.193 4165.36 509.71 4166.46 508.413C4167.57 507.126 4168.93 506.078 4170.46 505.333C4172.18 504.513 4174.07 504.108 4175.97 504.152C4177.77 504.108 4179.56 504.474 4181.2 505.223C4182.63 505.911 4183.9 506.908 4184.9 508.143C4185.94 509.437 4186.73 510.92 4187.21 512.512C4187.73 514.244 4187.99 516.044 4187.99 517.853H4162.69ZM4150.35 536.092C4151.47 539.672 4153.35 542.969 4155.85 545.762C4158.46 548.589 4161.69 550.776 4165.28 552.152C4169.58 553.774 4174.16 554.558 4178.76 554.462H4180.21C4180.7 554.46 4181.19 554.42 4181.68 554.342C4179.67 556.106 4177.88 558.104 4176.34 560.293C4175.02 562.125 4174.29 564.321 4174.27 566.582C4174.2 567.917 4174.46 569.25 4175.04 570.457C4175.62 571.664 4176.49 572.709 4177.57 573.493C4179.78 575.099 4183.12 575.902 4187.57 575.902C4189.16 575.89 4190.76 575.78 4192.34 575.572C4193.86 575.399 4195.36 575.022 4196.78 574.452L4195.78 565.342C4194.11 565.894 4192.37 566.198 4190.62 566.243C4187.99 566.243 4186.68 565.243 4186.68 563.243C4186.74 562.151 4187.14 561.104 4187.81 560.243C4188.64 559.052 4189.58 557.944 4190.62 556.933C4191.75 555.796 4192.95 554.728 4194.21 553.733C4195.48 552.733 4196.68 551.803 4197.8 550.973L4196 539.863C4193.91 540.692 4191.75 541.327 4189.55 541.762C4186.57 542.39 4183.54 542.693 4180.5 542.663C4174.89 542.663 4170.61 541.373 4167.64 538.793C4164.64 536.213 4163.02 532.553 4162.64 527.853H4201.38C4201.45 527.103 4201.52 526.252 4201.55 525.322C4201.58 524.392 4201.61 523.543 4201.61 522.793C4201.61 512.846 4199.34 505.362 4194.81 500.342C4190.28 495.322 4183.97 492.812 4175.88 492.812C4172.41 492.827 4168.98 493.507 4165.77 494.812C4162.48 496.13 4159.5 498.119 4157.02 500.652C4154.35 503.445 4152.27 506.748 4150.9 510.363C4149.28 514.711 4148.5 519.324 4148.6 523.962C4148.55 528.088 4149.16 532.197 4150.4 536.133M4134.95 470.963C4133.37 469.488 4131.27 468.682 4129.11 468.713C4126.89 468.657 4124.74 469.464 4123.11 470.963C4122.27 471.749 4121.62 472.709 4121.19 473.775C4120.77 474.84 4120.58 475.986 4120.64 477.133C4120.59 478.263 4120.78 479.392 4121.21 480.44C4121.63 481.488 4122.28 482.431 4123.11 483.203C4124.75 484.692 4126.9 485.49 4129.11 485.432C4131.27 485.464 4133.36 484.667 4134.95 483.203C4135.78 482.431 4136.43 481.488 4136.85 480.44C4137.28 479.392 4137.47 478.263 4137.42 477.133C4137.48 475.986 4137.29 474.84 4136.87 473.775C4136.44 472.709 4135.79 471.749 4134.95 470.963ZM4135.95 494.312H4122.37V553.003H4135.95V494.312ZM4058.42 553.003H4072V505.603C4072.9 505.453 4074.28 505.273 4076.16 505.043C4077.95 504.824 4079.75 504.711 4081.55 504.703C4083.56 504.662 4085.56 505.001 4087.45 505.703C4089 506.287 4090.33 507.334 4091.27 508.703C4092.29 510.342 4092.97 512.171 4093.27 514.082C4093.72 516.724 4093.93 519.401 4093.9 522.082V553.003H4107.48V520.003C4107.51 516.322 4107.12 512.651 4106.3 509.062C4105.63 505.951 4104.26 503.035 4102.3 500.533C4100.25 498.068 4097.6 496.171 4094.6 495.023C4090.76 493.593 4086.69 492.914 4082.6 493.023C4077.94 492.989 4073.28 493.323 4068.67 494.023C4065.23 494.541 4061.81 495.256 4058.45 496.163L4058.42 553.003ZM4026.02 552.383C4029.68 551.008 4032.96 548.796 4035.61 545.923C4038.16 543.103 4040.07 539.771 4041.23 536.152C4042.5 532.161 4043.13 527.992 4043.08 523.803V475.173H4028.83V522.443C4028.89 525.485 4028.49 528.52 4027.64 531.443C4026.99 533.708 4025.84 535.799 4024.28 537.563C4022.84 539.122 4021.05 540.318 4019.06 541.053C4016.9 541.819 4014.61 542.198 4012.32 542.173C4010.04 542.202 4007.78 541.823 4005.64 541.053C4003.67 540.312 4001.9 539.116 4000.48 537.563C3998.91 535.803 3997.75 533.711 3997.1 531.443C3996.26 528.519 3995.86 525.485 3995.92 522.443V475.173H3981.67V523.793C3981.62 527.977 3982.23 532.143 3983.46 536.142C3984.58 539.763 3986.48 543.097 3989.02 545.913C3991.64 548.766 3994.89 550.977 3998.51 552.373C4002.88 554.007 4007.53 554.788 4012.2 554.673C4016.91 554.78 4021.6 554 4026.02 552.373" fill="white"/>
<path d="M4793.8 364.88H4749.22V376.22H4776.28C4774.28 378.62 4771.98 381.43 4769.37 384.65C4766.76 387.87 4764.16 391.257 4761.57 394.81C4758.95 398.37 4756.41 401.907 4753.94 405.42C4751.71 408.563 4749.64 411.824 4747.76 415.19V423.61H4794.47V412.26H4764.15C4766.39 408.82 4768.92 405.21 4771.73 401.43C4774.54 397.65 4777.33 394.02 4780.09 390.54C4782.87 387.06 4785.47 383.897 4787.9 381.05C4790.33 378.203 4792.29 375.997 4793.8 374.43V364.88ZM4702.06 388.46C4702.29 386.753 4702.7 385.076 4703.29 383.46C4703.86 381.86 4704.72 380.376 4705.82 379.08C4706.93 377.788 4708.29 376.736 4709.82 375.99C4711.54 375.177 4713.42 374.777 4715.32 374.82C4717.11 374.772 4718.9 375.134 4720.53 375.88C4721.97 376.566 4723.24 377.563 4724.24 378.8C4725.29 380.096 4726.07 381.584 4726.55 383.18C4727.08 384.907 4727.35 386.704 4727.34 388.51L4702.06 388.46ZM4689.7 406.71C4690.83 410.283 4692.7 413.576 4695.2 416.37C4697.82 419.199 4701.05 421.389 4704.65 422.77C4708.95 424.39 4713.52 425.17 4718.12 425.07C4720.11 425.073 4722.09 424.96 4724.06 424.73C4726.01 424.5 4727.82 424.23 4729.51 423.89C4731.02 423.594 4732.52 423.22 4734 422.77C4735.06 422.454 4736.09 422.06 4737.09 421.59L4735.3 410.47C4733.21 411.298 4731.05 411.937 4728.84 412.38C4725.88 413.001 4722.86 413.303 4719.84 413.28C4714.22 413.28 4709.94 411.987 4706.99 409.4C4704.04 406.813 4702.38 403.167 4701.99 398.46H4740.73C4740.81 397.71 4740.86 396.87 4740.9 395.93C4740.94 394.99 4740.9 394.16 4740.9 393.4C4740.9 383.44 4738.64 375.953 4734.12 370.94C4729.6 365.927 4723.29 363.42 4715.19 363.42C4711.73 363.435 4708.3 364.114 4705.09 365.42C4701.79 366.729 4698.81 368.719 4696.33 371.26C4693.66 374.051 4691.58 377.354 4690.21 380.97C4688.6 385.313 4687.82 389.919 4687.91 394.55C4687.87 398.682 4688.47 402.795 4689.7 406.74M4680.09 364.91H4635.52V376.25H4662.58C4660.58 378.65 4658.28 381.46 4655.68 384.68C4653.08 387.9 4650.48 391.287 4647.87 394.84C4645.25 398.4 4642.7 401.937 4640.23 405.45C4638 408.595 4635.94 411.857 4634.06 415.22V423.64H4680.77V412.26H4650.45C4652.7 408.82 4655.23 405.21 4658.03 401.43C4660.83 397.65 4663.62 394.02 4666.4 390.54C4669.16 387.06 4671.77 383.9 4674.2 381.05C4676.63 378.2 4678.6 376 4680.09 374.43V364.91ZM4628.41 365.7C4627.74 365.47 4626.84 365.23 4625.71 364.96C4624.58 364.69 4623.43 364.48 4622.24 364.3C4621.05 364.12 4619.84 363.96 4618.64 363.84C4617.44 363.72 4616.4 363.67 4615.5 363.67C4611.11 363.635 4606.72 364.068 4602.42 364.96C4599.09 365.66 4595.8 366.582 4592.59 367.72V423.64H4606.18V376.56C4607.34 376.229 4608.53 375.969 4609.72 375.78C4611.29 375.485 4612.89 375.334 4614.49 375.33C4616.81 375.301 4619.12 375.505 4621.39 375.94C4622.96 376.247 4624.52 376.641 4626.05 377.12L4628.41 365.7ZM4578.15 381.58C4576.87 377.982 4574.84 374.696 4572.2 371.94C4569.56 369.243 4566.36 367.151 4562.83 365.81C4558.84 364.332 4554.61 363.606 4550.36 363.67C4546.07 363.647 4541.79 363.981 4537.56 364.67C4533.52 365.337 4530.11 366.047 4527.34 366.8V444.4H4540.93V421.6C4542.75 422.548 4544.67 423.302 4546.65 423.85C4549.14 424.536 4551.71 424.872 4554.29 424.85C4558.1 424.912 4561.87 424.148 4565.35 422.61C4568.52 421.176 4571.3 419.022 4573.49 416.32C4575.75 413.443 4577.45 410.166 4578.49 406.66C4579.69 402.654 4580.27 398.491 4580.23 394.31C4580.29 389.971 4579.59 385.655 4578.15 381.56M4562.88 408.12C4560.6 411.493 4556.99 413.177 4552.05 413.17C4549.89 413.187 4547.74 412.828 4545.7 412.11C4544.02 411.545 4542.42 410.773 4540.93 409.81V376.22C4542.27 375.852 4543.64 375.611 4545.02 375.5C4546.41 375.38 4547.74 375.33 4549.02 375.33C4555.09 375.33 4559.49 377.013 4562.22 380.38C4564.95 383.747 4566.32 388.46 4566.31 394.52C4566.31 400.22 4565.17 404.74 4562.89 408.11M4447.22 388.46C4447.45 386.753 4447.86 385.076 4448.46 383.46C4449.03 381.83 4449.89 380.318 4451 379C4452.11 377.71 4453.47 376.659 4455 375.91C4456.72 375.097 4458.6 374.697 4460.5 374.74C4462.3 374.692 4464.08 375.054 4465.72 375.8C4467.16 376.491 4468.42 377.488 4469.43 378.72C4470.47 380.019 4471.25 381.506 4471.73 383.1C4472.26 384.827 4472.52 386.624 4472.51 388.43L4447.22 388.46ZM4434.87 406.71C4435.99 410.285 4437.87 413.579 4440.37 416.37C4442.98 419.195 4446.21 421.384 4449.8 422.77C4454.1 424.387 4458.67 425.168 4463.27 425.07C4465.28 425.075 4467.28 424.962 4469.27 424.73C4471.21 424.5 4473.03 424.23 4474.72 423.89C4476.23 423.595 4477.73 423.221 4479.2 422.77C4480.26 422.456 4481.29 422.061 4482.29 421.59L4480.49 410.47C4478.4 411.3 4476.24 411.939 4474.04 412.38C4471.08 413.002 4468.06 413.304 4465.04 413.28C4459.42 413.28 4455.13 411.987 4452.18 409.4C4449.18 406.82 4447.57 403.17 4447.18 398.46H4485.92C4485.99 397.71 4486.04 396.87 4486.09 395.93C4486.14 394.99 4486.14 394.16 4486.14 393.4C4486.14 383.44 4483.88 375.953 4479.35 370.94C4474.82 365.927 4468.52 363.42 4460.43 363.42C4456.96 363.435 4453.53 364.114 4450.32 365.42C4447.02 366.731 4444.04 368.721 4441.56 371.26C4438.88 374.049 4436.8 377.352 4435.44 380.97C4433.83 385.313 4433.05 389.919 4433.14 394.55C4433.1 398.683 4433.7 402.796 4434.94 406.74M4372.29 423.64H4385.87V376.22C4386.76 376.08 4388.16 375.89 4390.03 375.66C4391.82 375.445 4393.61 375.335 4395.41 375.33C4397.42 375.273 4399.42 375.596 4401.31 376.28C4402.86 376.865 4404.19 377.912 4405.13 379.28C4406.16 380.921 4406.84 382.755 4407.13 384.67C4407.58 387.312 4407.8 389.99 4407.76 392.67V423.55H4421.34V390.55C4421.37 386.867 4420.98 383.193 4420.17 379.6C4419.47 376.49 4418.09 373.575 4416.12 371.07C4414.07 368.614 4411.42 366.721 4408.43 365.57C4404.6 364.142 4400.52 363.463 4396.43 363.57C4391.77 363.531 4387.11 363.865 4382.5 364.57C4379.06 365.082 4375.65 365.793 4372.29 366.7V423.64ZM4322.98 364.35C4320.43 364.768 4317.91 365.369 4315.45 366.15L4317.14 377.15C4319.22 376.443 4321.37 375.917 4323.54 375.58C4326.4 375.118 4329.29 374.893 4332.19 374.91C4334.16 374.852 4336.12 375.157 4337.97 375.81C4339.4 376.327 4340.67 377.193 4341.67 378.33C4342.62 379.411 4343.31 380.698 4343.67 382.09C4344.05 383.557 4344.24 385.066 4344.23 386.58V388.83C4342.5 388.403 4340.74 388.086 4338.96 387.88C4337.39 387.693 4335.82 387.596 4334.24 387.59C4331.13 387.581 4328.02 387.899 4324.97 388.54C4322.2 389.111 4319.56 390.178 4317.17 391.69C4314.96 393.115 4313.13 395.062 4311.84 397.36C4310.45 399.982 4309.76 402.922 4309.84 405.89C4309.75 408.939 4310.34 411.97 4311.57 414.76C4312.67 417.081 4314.33 419.091 4316.4 420.61C4318.65 422.186 4321.19 423.295 4323.87 423.87C4327.04 424.561 4330.28 424.896 4333.52 424.87C4338.31 424.904 4343.1 424.587 4347.84 423.92C4352.07 423.29 4355.23 422.74 4357.34 422.29V386.69C4357.36 383.491 4356.96 380.303 4356.15 377.21C4355.44 374.48 4354.1 371.957 4352.22 369.85C4350.18 367.707 4347.66 366.088 4344.86 365.13C4341.21 363.917 4337.37 363.349 4333.52 363.45C4329.98 363.432 4326.45 363.733 4322.97 364.35M4326.45 412.24C4324.45 411 4323.45 408.78 4323.45 405.55C4323.39 404.103 4323.79 402.674 4324.58 401.46C4325.34 400.37 4326.38 399.5 4327.58 398.94C4328.89 398.315 4330.3 397.896 4331.74 397.7C4333.25 397.479 4334.77 397.365 4336.29 397.36C4337.87 397.353 4339.44 397.466 4341 397.7C4342.1 397.856 4343.19 398.083 4344.26 398.38V413.38C4341.11 413.909 4337.91 414.137 4334.72 414.06C4331.87 414.202 4329.03 413.558 4326.52 412.2M4269 405.92C4271.05 412.16 4273.05 418.053 4275 423.6H4286C4287.58 420.15 4289.19 416.23 4290.84 411.81C4292.49 407.39 4294.14 402.68 4295.79 397.66C4297.44 392.64 4299.09 387.36 4300.79 381.83C4302.49 376.3 4304.05 370.64 4305.63 364.83H4291.63C4290.96 367.977 4290.17 371.363 4289.26 374.99C4288.35 378.617 4287.39 382.323 4286.38 386.11C4285.37 389.89 4284.34 393.58 4283.27 397.18C4282.2 400.78 4281.2 404.07 4280.27 407.05C4279.15 403.61 4278.04 400.05 4276.97 396.39C4275.9 392.73 4274.87 389.05 4273.97 385.39C4273.07 381.73 4272.16 378.15 4271.34 374.67C4270.52 371.19 4269.77 367.92 4269.1 364.84H4258.4C4257.73 367.92 4256.96 371.197 4256.09 374.67C4255.22 378.15 4254.31 381.73 4253.33 385.39C4252.35 389.05 4251.33 392.73 4250.23 396.39C4249.13 400.05 4248.05 403.61 4246.92 407.05C4245.86 404.057 4244.81 400.767 4243.76 397.18C4242.71 393.593 4241.7 389.903 4240.71 386.11C4239.73 382.33 4238.79 378.623 4237.88 374.99C4236.97 371.357 4236.19 367.97 4235.52 364.83H4221.14C4222.71 370.597 4224.32 376.263 4225.98 381.83C4227.62 387.36 4229.28 392.65 4230.98 397.66C4232.68 402.67 4234.28 407.39 4235.93 411.81C4237.58 416.23 4239.16 420.15 4240.64 423.6H4251.81C4253.75 418.06 4255.71 412.167 4257.69 405.92C4259.67 399.673 4261.52 393.25 4263.24 386.65C4264.96 393.25 4266.85 399.673 4268.91 405.92M4198.97 408.22C4197.73 409.826 4196.14 411.127 4194.32 412.022C4192.5 412.917 4190.5 413.382 4188.47 413.382C4186.44 413.382 4184.44 412.917 4182.62 412.022C4180.8 411.127 4179.21 409.826 4177.97 408.22C4175.45 404.767 4174.19 400.1 4174.2 394.22C4174.21 388.34 4175.46 383.717 4177.97 380.35C4179.22 378.758 4180.81 377.47 4182.63 376.584C4184.45 375.699 4186.45 375.238 4188.47 375.238C4190.49 375.238 4192.49 375.699 4194.31 376.584C4196.13 377.47 4197.72 378.758 4198.97 380.35C4201.47 383.763 4202.72 388.387 4202.73 394.22C4202.74 400.053 4201.48 404.72 4198.97 408.22ZM4214.57 381.54C4213.3 377.956 4211.34 374.656 4208.79 371.83C4206.31 369.13 4203.26 367.004 4199.87 365.6C4196.25 364.115 4192.38 363.371 4188.47 363.41C4184.58 363.365 4180.72 364.11 4177.12 365.6C4173.74 367.022 4170.69 369.145 4168.19 371.83C4165.62 374.647 4163.64 377.948 4162.36 381.54C4160.93 385.597 4160.22 389.877 4160.28 394.18C4160.22 398.499 4160.93 402.794 4162.36 406.87C4163.62 410.479 4165.58 413.8 4168.14 416.64C4170.62 419.34 4173.64 421.484 4177.01 422.93C4180.64 424.458 4184.54 425.22 4188.47 425.17C4192.42 425.217 4196.33 424.455 4199.97 422.93C4203.36 421.495 4206.41 419.35 4208.9 416.64C4211.45 413.805 4213.4 410.481 4214.63 406.87C4216.01 402.785 4216.69 398.493 4216.63 394.18C4216.69 389.877 4215.98 385.597 4214.55 381.54M4118.46 412.71C4116 412.077 4113.57 411.289 4111.21 410.35L4108.85 421.7C4111.02 422.501 4113.24 423.188 4115.48 423.76C4119.56 424.733 4123.75 425.17 4127.94 425.06C4135.65 425.06 4141.59 423.62 4145.74 420.74C4149.89 417.86 4151.97 413.607 4151.97 407.98C4152.02 405.696 4151.68 403.42 4150.97 401.25C4150.29 399.364 4149.2 397.654 4147.77 396.25C4146.13 394.663 4144.26 393.338 4142.22 392.32C4139.56 390.976 4136.82 389.794 4134.01 388.78C4132.33 388.199 4130.68 387.531 4129.07 386.78C4127.92 386.261 4126.83 385.621 4125.82 384.87C4125.08 384.332 4124.48 383.621 4124.08 382.8C4123.73 381.986 4123.55 381.107 4123.57 380.22C4123.53 379.325 4123.76 378.438 4124.22 377.669C4124.68 376.9 4125.35 376.282 4126.16 375.89C4128.25 374.879 4130.57 374.402 4132.89 374.5C4135.61 374.459 4138.33 374.738 4140.98 375.33C4142.94 375.774 4144.86 376.397 4146.71 377.19L4149.17 366.19C4146.86 365.391 4144.5 364.769 4142.1 364.33C4138.85 363.688 4135.54 363.37 4132.22 363.38C4125.41 363.38 4120.02 364.933 4116.05 368.04C4114.11 369.535 4112.56 371.473 4111.53 373.692C4110.49 375.91 4110 378.344 4110.1 380.79C4110.03 383.188 4110.47 385.573 4111.39 387.79C4112.21 389.647 4113.42 391.31 4114.93 392.67C4116.54 394.091 4118.33 395.282 4120.26 396.21C4122.47 397.283 4124.74 398.237 4127.06 399.07C4130.12 400.086 4133.04 401.484 4135.75 403.23C4136.56 403.746 4137.23 404.458 4137.69 405.301C4138.15 406.143 4138.39 407.089 4138.39 408.05C4138.46 408.951 4138.26 409.852 4137.82 410.642C4137.38 411.432 4136.72 412.074 4135.92 412.49C4134.28 413.35 4131.66 413.78 4128.06 413.78C4124.83 413.825 4121.6 413.448 4118.47 412.66M4049 423.61H4062.58V376.22C4063.48 376.08 4064.87 375.89 4066.74 375.66C4068.53 375.445 4070.33 375.335 4072.13 375.33C4074.14 375.273 4076.13 375.595 4078.02 376.28C4079.57 376.865 4080.9 377.912 4081.84 379.28C4082.87 380.921 4083.55 382.755 4083.84 384.67C4084.29 387.313 4084.49 389.99 4084.46 392.67V423.55H4098.05V390.55C4098.08 386.867 4097.68 383.193 4096.87 379.6C4096.19 376.492 4094.83 373.577 4092.87 371.07C4090.82 368.612 4088.17 366.719 4085.18 365.57C4081.34 364.144 4077.27 363.465 4073.18 363.57C4068.52 363.531 4063.87 363.865 4059.26 364.57C4055.81 365.08 4052.4 365.791 4049.04 366.7L4049 423.61ZM3999.69 364.32C3997.14 364.738 3994.63 365.339 3992.17 366.12L3993.86 377.12C3995.94 376.411 3998.08 375.886 4000.25 375.55C4003.11 375.088 4006 374.864 4008.9 374.88C4010.87 374.823 4012.83 375.128 4014.69 375.78C4016.11 376.302 4017.38 377.168 4018.39 378.3C4019.34 379.383 4020.02 380.67 4020.39 382.06C4020.78 383.525 4020.97 385.035 4020.96 386.55V388.8C4019.22 388.373 4017.46 388.055 4015.68 387.85C4014.12 387.664 4012.54 387.567 4010.97 387.56C4007.86 387.55 4004.75 387.868 4001.7 388.51C3998.93 389.078 3996.29 390.145 3993.9 391.66C3991.68 393.085 3989.85 395.032 3988.56 397.33C3987.17 399.952 3986.48 402.891 3986.56 405.86C3986.46 408.91 3987.05 411.944 3988.3 414.73C3989.39 417.055 3991.05 419.067 3993.13 420.58C3995.37 422.156 3997.91 423.265 4000.59 423.84C4003.76 424.53 4007 424.866 4010.25 424.84C4015.04 424.874 4019.83 424.557 4024.57 423.89C4028.79 423.26 4031.96 422.71 4034.05 422.26V386.66C4034.08 383.461 4033.69 380.273 4032.87 377.18C4032.17 374.447 4030.82 371.922 4028.94 369.82C4026.91 367.675 4024.39 366.055 4021.59 365.1C4017.94 363.889 4014.1 363.321 4010.25 363.42C4006.71 363.402 4003.18 363.703 3999.69 364.32ZM4003.17 412.21C4001.17 410.97 4000.17 408.75 4000.17 405.52C4000.12 404.075 4000.51 402.648 4001.29 401.43C4002.05 400.338 4003.08 399.469 4004.29 398.91C4005.6 398.285 4007 397.867 4008.44 397.67C4009.95 397.449 4011.47 397.335 4013 397.33C4014.58 397.323 4016.15 397.436 4017.71 397.67C4018.81 397.828 4019.9 398.055 4020.97 398.35V413.35C4017.82 413.878 4014.62 414.106 4011.42 414.03C4008.57 414.172 4005.73 413.528 4003.22 412.17M3926.83 423.57H3940.41V376.22C3941.31 376.08 3942.7 375.89 3944.57 375.66C3946.36 375.445 3948.15 375.335 3949.95 375.33C3951.96 375.273 3953.96 375.596 3955.85 376.28C3957.4 376.865 3958.73 377.912 3959.67 379.28C3960.7 380.921 3961.38 382.755 3961.67 384.67C3962.12 387.313 3962.32 389.99 3962.29 392.67V423.55H3975.88V390.55C3975.91 386.867 3975.51 383.193 3974.7 379.6C3974.02 376.493 3972.66 373.577 3970.7 371.07C3968.65 368.612 3966 366.719 3963.01 365.57C3959.17 364.142 3955.1 363.463 3951.01 363.57C3946.35 363.531 3941.69 363.865 3937.08 364.57C3933.64 365.082 3930.23 365.793 3926.87 366.7L3926.83 423.57ZM3857.89 342.83C3853.89 347.097 3851.89 353.05 3851.89 360.69V423.57H3865.48V376.22H3887V364.88H3865.44V361C3865.29 357.706 3866.18 354.447 3867.97 351.68C3869.65 349.293 3872.73 348.097 3877.22 348.09C3878.82 348.078 3880.43 348.229 3882 348.54C3883.28 348.789 3884.54 349.123 3885.77 349.54L3887.9 338.54C3886.38 337.978 3884.82 337.53 3883.23 337.2C3880.85 336.709 3878.42 336.481 3875.99 336.52C3867.84 336.52 3861.78 338.653 3857.81 342.92M3909.91 341.57C3908.32 340.103 3906.23 339.301 3904.07 339.33C3901.86 339.274 3899.71 340.077 3898.07 341.57C3897.24 342.362 3896.59 343.325 3896.16 344.391C3895.74 345.457 3895.54 346.603 3895.6 347.75C3895.55 348.879 3895.74 350.006 3896.17 351.052C3896.59 352.098 3897.24 353.039 3898.07 353.81C3899.7 355.31 3901.85 356.117 3904.07 356.06C3906.23 356.09 3908.33 355.284 3909.91 353.81C3910.74 353.039 3911.39 352.098 3911.81 351.052C3912.24 350.006 3912.43 348.879 3912.38 347.75C3912.44 346.603 3912.24 345.457 3911.82 344.391C3911.39 343.325 3910.74 342.362 3909.91 341.57ZM3910.8 364.93H3897.22V423.66H3910.8V364.93ZM3822.63 408.28C3821.39 409.886 3819.8 411.187 3817.98 412.082C3816.16 412.977 3814.16 413.442 3812.13 413.442C3810.1 413.442 3808.1 412.977 3806.28 412.082C3804.46 411.187 3802.87 409.886 3801.63 408.28C3799.12 404.827 3797.86 400.16 3797.86 394.28C3797.86 388.4 3799.12 383.777 3801.63 380.41C3802.88 378.818 3804.47 377.53 3806.29 376.644C3808.11 375.759 3810.11 375.298 3812.13 375.298C3814.15 375.298 3816.15 375.759 3817.97 376.644C3819.79 377.53 3821.38 378.818 3822.63 380.41C3825.13 383.823 3826.38 388.447 3826.38 394.28C3826.38 400.113 3825.13 404.78 3822.63 408.28ZM3838.23 381.6C3836.95 378.02 3834.99 374.722 3832.45 371.89C3829.96 369.187 3826.92 367.061 3823.52 365.66C3819.91 364.175 3816.04 363.43 3812.13 363.47C3808.24 363.424 3804.38 364.169 3800.78 365.66C3797.4 367.079 3794.36 369.203 3791.86 371.89C3789.28 374.704 3787.3 378.005 3786.02 381.6C3784.59 385.657 3783.88 389.937 3783.94 394.24C3783.89 398.559 3784.59 402.854 3786.02 406.93C3787.28 410.539 3789.24 413.86 3791.8 416.7C3794.28 419.398 3797.3 421.542 3800.67 422.99C3804.29 424.518 3808.2 425.281 3812.13 425.23C3816.08 425.276 3819.99 424.514 3823.63 422.99C3827.02 421.553 3830.07 419.408 3832.56 416.7C3835.11 413.867 3837.06 410.542 3838.28 406.93C3839.67 402.846 3840.35 398.553 3840.28 394.24C3840.33 389.937 3839.63 385.659 3838.2 381.6M3770.45 366.9C3768.51 362.128 3765.44 357.892 3761.52 354.55C3757.47 351.186 3752.74 348.734 3747.66 347.36C3741.84 345.772 3735.83 344.998 3729.8 345.06C3726.66 345.06 3723.06 345.17 3719.03 345.4C3715.17 345.597 3711.34 346.122 3707.57 346.97V422.54C3711.3 423.38 3715.09 423.922 3718.91 424.16C3722.91 424.43 3726.43 424.55 3729.58 424.55C3735.66 424.615 3741.73 423.807 3747.58 422.15C3752.7 420.7 3757.44 418.169 3761.5 414.73C3765.41 411.33 3768.47 407.063 3770.43 402.27C3772.64 396.681 3773.7 390.707 3773.57 384.7C3773.72 378.617 3772.65 372.566 3770.43 366.9M3721.7 357.63C3724.69 357.359 3727.7 357.249 3730.7 357.3C3740.28 357.3 3747.35 359.657 3751.92 364.37C3756.49 369.083 3758.77 375.86 3758.77 384.7C3758.77 393.367 3756.44 400.12 3751.77 404.96C3747.1 409.8 3740.01 412.217 3730.5 412.21C3728.17 412.21 3726.35 412.21 3724.99 412.15C3723.63 412.09 3722.56 412.06 3721.74 411.98L3721.7 357.63Z" fill="white"/>
<path d="M4891.51 261.883H5473.75V650.043H4891.51V261.883Z" fill="#003399"/>
<path d="M5182.63 308.133L5187.38 322.753H5202.75L5190.32 331.783L5195.07 346.403L5182.63 337.363L5170.2 346.403L5174.95 331.783L5162.51 322.753H5177.88L5182.63 308.133Z" fill="#FFCC00"/>
<path d="M5182.63 564.203L5187.38 578.823H5202.75L5190.32 587.853L5195.07 602.483L5182.63 593.443L5170.2 602.483L5174.95 587.853L5162.51 578.823H5177.88L5182.63 564.203Z" fill="#FFCC00"/>
<path d="M5055.57 435.57L5060.32 450.2H5075.69L5063.25 459.23L5068 473.85L5055.57 464.81L5043.14 473.85L5047.89 459.23L5035.45 450.2H5050.82L5055.57 435.57Z" fill="#FFCC00"/>
<path d="M5309.69 435.57L5314.43 450.2H5329.8L5317.36 459.23L5322.11 473.85L5309.69 464.81L5297.25 473.85L5302 459.23L5289.57 450.2H5304.94L5309.69 435.57Z" fill="#FFCC00"/>
<path d="M5245.9 325.703L5250.65 340.323H5266.02L5253.59 349.353L5258.34 363.983L5245.9 354.933L5233.47 363.983L5238.22 349.353L5225.78 340.323H5241.15L5245.9 325.703Z" fill="#FFCC00"/>
<path d="M5119.36 325.703L5124.11 340.323H5139.48L5127.05 349.353L5131.8 363.983L5119.36 354.933L5106.93 363.983L5111.68 349.353L5099.24 340.323H5114.61L5119.36 325.703Z" fill="#FFCC00"/>
<path d="M5245.9 545.539L5250.65 560.159H5266.02L5253.59 569.189L5258.34 583.809L5245.9 574.769L5233.47 583.809L5238.22 569.189L5225.78 560.159H5241.15L5245.9 545.539Z" fill="#FFCC00"/>
<path d="M5119.36 545.539L5124.11 560.159H5139.48L5127.05 569.189L5131.8 583.809L5119.36 574.769L5106.93 583.809L5111.68 569.189L5099.24 560.159H5114.61L5119.36 545.539Z" fill="#FFCC00"/>
<path d="M5292.48 371.641L5297.23 386.261H5312.6L5300.17 395.291L5304.92 409.911L5292.48 400.871L5280.05 409.911L5284.8 395.291L5272.36 386.261H5287.73L5292.48 371.641Z" fill="#FFCC00"/>
<path d="M5072.78 371.641L5077.53 386.261H5092.9L5080.47 395.291L5085.22 409.911L5072.78 400.871L5060.35 409.911L5065.1 395.291L5052.66 386.261H5068.03L5072.78 371.641Z" fill="#FFCC00"/>
<path d="M5292.48 498.844L5297.23 513.464H5312.6L5300.17 522.494L5304.92 537.114L5292.48 528.074L5280.05 537.114L5284.8 522.494L5272.36 513.464H5287.73L5292.48 498.844Z" fill="#FFCC00"/>
<path d="M5072.78 498.844L5077.53 513.464H5092.9L5080.47 522.494L5085.22 537.114L5072.78 528.074L5060.35 537.114L5065.1 522.494L5052.66 513.464H5068.03L5072.78 498.844Z" fill="#FFCC00"/>
<path d="M526.39 700.648L263.99 651.898V261.928L526.39 180.688V700.648Z" fill="#003399"/>
<path d="M264 558.18V456.94C277.22 460.49 291.91 462.16 301.61 456.38C322.8 443.85 354.9 405.5 354.9 405.5C354.9 405.5 338 446.85 344.4 462C351.13 478.13 391.23 479 391.23 479C391.23 479 345.91 506.31 324.81 524.42C303.11 542.92 288 610.79 288 610.79C288 610.79 277.49 567.28 264 558.18Z" fill="#FFCC00"/>
<path d="M526.39 379.557C517.3 385.217 508.39 389.677 501.7 390.977C480.62 394.977 458.06 370.977 458.06 370.977C458.06 370.977 463.36 406.067 450.06 427.687C436.06 450.457 391.21 478.987 391.21 478.987C391.21 478.987 440.83 469.467 450.48 484.717C460.74 501.077 462.12 558.057 462.12 558.057C462.12 558.057 487.4 489.647 510.34 480.327C515.569 478.26 520.911 476.491 526.34 475.027L526.39 379.557Z" fill="#E21D2C"/>
<path d="M354.93 405.484C354.93 405.484 380.28 366.114 378.75 352.104C377.25 338.794 351 333.994 351 333.994C351 333.994 385.43 325.604 400.46 312.224C414.93 299.294 427.61 272.484 427.61 272.484C427.61 272.484 430.8 294.674 443.69 297.854C456.99 301.174 492.49 286.964 492.49 286.964C492.49 286.964 464.49 313.244 453.49 327.584C442 342.584 458.14 371.004 458.14 371.004C458.14 371.004 428.39 360.734 411.73 363.824C395.35 366.894 355.01 405.474 355.01 405.474" fill="white"/>
<path d="M624.79 424.404V346.234H674.65V358.304H639.13V378.304H670.67V390.374H639.13V424.444L624.79 424.404Z" fill="white"/>
<path d="M732.38 422.606C729.713 423.273 726.26 423.969 722.02 424.696C717.39 425.437 712.708 425.795 708.02 425.766C703.927 425.893 699.85 425.213 696.02 423.766C693.01 422.561 690.349 420.622 688.28 418.126C686.285 415.585 684.865 412.64 684.12 409.496C683.259 405.894 682.839 402.2 682.87 398.496V365.406H696.65V396.316C696.65 402.636 697.58 407.149 699.44 409.856C701.3 412.563 704.543 413.916 709.17 413.916C710.84 413.916 712.61 413.846 714.47 413.696C715.866 413.613 717.253 413.422 718.62 413.126V365.406H732.4L732.38 422.606Z" fill="white"/>
<path d="M748 367.332C751.409 366.42 754.868 365.705 758.36 365.192C763.033 364.487 767.754 364.153 772.48 364.192C776.63 364.079 780.764 364.758 784.66 366.192C787.686 367.34 790.371 369.24 792.46 371.712C794.46 374.223 795.862 377.158 796.56 380.292C797.381 383.9 797.78 387.591 797.75 391.292V424.452H784V393.452C784.037 390.748 783.826 388.047 783.37 385.382C783.063 383.457 782.366 381.616 781.32 379.972C780.373 378.582 779.022 377.518 777.45 376.922C775.528 376.223 773.494 375.884 771.45 375.922C769.625 375.93 767.802 376.044 765.99 376.262C764.09 376.492 762.68 376.682 761.77 376.832V424.432H748V367.332Z" fill="white"/>
<path d="M863.43 422.607C860.045 423.58 856.601 424.334 853.12 424.867C848.82 425.547 844.473 425.882 840.12 425.867C835.811 425.933 831.527 425.207 827.48 423.727C823.902 422.389 820.657 420.291 817.97 417.577C815.3 414.809 813.254 411.502 811.97 407.877C810.509 403.767 809.794 399.429 809.86 395.067C809.809 390.773 810.403 386.495 811.62 382.377C812.679 378.809 814.444 375.49 816.81 372.617C819.067 369.925 821.909 367.784 825.12 366.357C828.678 364.834 832.52 364.084 836.39 364.157C838.968 364.11 841.54 364.447 844.02 365.157C845.981 365.736 847.885 366.493 849.71 367.417V339.127L863.49 336.867L863.43 422.607ZM823.92 394.737C823.92 400.737 825.36 405.457 828.24 408.897C831.12 412.337 835.12 414.047 840.24 414.027C842.123 414.045 844.007 413.952 845.88 413.747C847.16 413.61 848.432 413.403 849.69 413.127V379.287C848.18 378.316 846.554 377.54 844.85 376.977C842.784 376.249 840.609 375.884 838.42 375.897C833.413 375.897 829.746 377.59 827.42 380.977C825.093 384.364 823.926 388.95 823.92 394.737Z" fill="white"/>
<path d="M928 422.606C925.334 423.273 921.88 423.969 917.64 424.696C913.011 425.437 908.329 425.795 903.64 425.766C899.548 425.894 895.47 425.214 891.64 423.766C888.628 422.566 885.966 420.626 883.9 418.126C881.897 415.59 880.476 412.643 879.74 409.496C878.875 405.895 878.455 402.2 878.49 398.496V365.406H892.26V396.316C892.26 402.636 893.19 407.149 895.05 409.856C896.91 412.563 900.157 413.916 904.79 413.916C906.45 413.916 908.22 413.846 910.08 413.696C911.48 413.612 912.87 413.422 914.24 413.126V365.406H928V422.606Z" fill="white"/>
<path d="M959.29 414.595C962.94 414.595 965.59 414.165 967.29 413.295C968.101 412.882 968.772 412.238 969.217 411.445C969.662 410.651 969.861 409.743 969.79 408.835C969.785 407.868 969.539 406.918 969.072 406.07C968.606 405.223 967.935 404.506 967.12 403.985C964.362 402.24 961.399 400.84 958.3 399.815C955.952 398.982 953.652 398.02 951.41 396.935C949.451 396.007 947.631 394.813 946 393.385C944.472 392.019 943.249 390.346 942.41 388.475C941.477 386.245 941.03 383.842 941.1 381.425C940.998 378.967 941.49 376.519 942.534 374.291C943.579 372.063 945.145 370.12 947.1 368.625C951.1 365.505 956.563 363.945 963.49 363.945C966.848 363.949 970.198 364.283 973.49 364.945C975.923 365.387 978.319 366.008 980.66 366.805L978.15 377.855C976.276 377.064 974.335 376.442 972.35 375.995C969.658 375.4 966.907 375.118 964.15 375.155C961.793 375.059 959.449 375.539 957.32 376.555C956.507 376.946 955.826 377.566 955.36 378.339C954.895 379.112 954.666 380.004 954.7 380.905C954.682 381.795 954.856 382.678 955.21 383.495C955.614 384.327 956.219 385.045 956.97 385.585C958.003 386.339 959.113 386.983 960.28 387.505C961.908 388.264 963.578 388.932 965.28 389.505C968.117 390.529 970.892 391.718 973.59 393.065C975.658 394.081 977.557 395.41 979.22 397.005C980.663 398.409 981.773 400.117 982.47 402.005C983.19 404.188 983.528 406.478 983.47 408.775C983.47 414.415 981.363 418.685 977.15 421.585C972.937 424.485 966.937 425.932 959.15 425.925C954.898 426.036 950.65 425.599 946.51 424.625C944.235 424.05 941.992 423.356 939.79 422.545L942.18 411.145C944.578 412.088 947.033 412.88 949.53 413.515C952.723 414.293 956.004 414.656 959.29 414.595Z" fill="white"/>
<path d="M1038 375.001C1036.49 376.581 1034.49 378.801 1032 381.661C1029.51 384.521 1026.89 387.661 1024.08 391.191C1021.27 394.721 1018.45 398.341 1015.6 402.131C1012.75 405.921 1010.19 409.561 1007.91 413.021H1038.66V424.411H991.28V416.001C993.188 412.618 995.281 409.343 997.55 406.191C1000.05 402.651 1002.63 399.098 1005.29 395.531C1007.95 391.964 1010.59 388.561 1013.2 385.321C1015.82 382.094 1018.15 379.274 1020.2 376.861H992.77V365.461H1038V375.001Z" fill="white"/>
<path d="M1045.71 395.192C1045.61 390.539 1046.4 385.909 1048.04 381.552C1049.42 377.907 1051.53 374.585 1054.25 371.792C1056.77 369.236 1059.79 367.237 1063.13 365.922C1066.39 364.615 1069.86 363.937 1073.37 363.922C1081.57 363.922 1087.97 366.439 1092.56 371.472C1097.15 376.505 1099.45 384.029 1099.45 394.042C1099.45 394.792 1099.45 395.642 1099.39 396.582C1099.33 397.522 1099.29 398.362 1099.22 399.112H1059.94C1060.32 403.852 1062.01 407.519 1065.01 410.112C1068.01 412.705 1072.34 414.002 1078.01 414.002C1081.09 414.028 1084.16 413.726 1087.18 413.102C1089.41 412.662 1091.6 412.02 1093.72 411.182L1095.54 422.352C1094.53 422.827 1093.49 423.224 1092.42 423.542C1090.92 423.996 1089.4 424.373 1087.86 424.672C1086.15 425.002 1084.31 425.292 1082.34 425.512C1080.35 425.74 1078.34 425.854 1076.34 425.852C1071.68 425.952 1067.05 425.168 1062.68 423.542C1059.04 422.158 1055.77 419.958 1053.12 417.112C1050.58 414.318 1048.68 411.009 1047.54 407.412C1046.29 403.461 1045.67 399.336 1045.71 395.192ZM1085.71 389.102C1085.72 387.288 1085.45 385.484 1084.91 383.752C1084.43 382.146 1083.64 380.65 1082.58 379.352C1081.55 378.113 1080.27 377.11 1078.82 376.412C1077.16 375.662 1075.35 375.296 1073.53 375.342C1071.6 375.301 1069.69 375.705 1067.95 376.522C1066.42 377.281 1065.06 378.338 1063.95 379.632C1062.83 380.927 1061.96 382.419 1061.39 384.032C1060.78 385.669 1060.36 387.37 1060.13 389.102H1085.71Z" fill="white"/>
<path d="M1149.66 424.404V346.234H1200.32V358.304H1164V377.594H1196.34V389.434H1164V412.334H1203.06V424.404H1149.66Z" fill="white"/>
<path d="M1262.49 422.606C1259.82 423.273 1256.37 423.969 1252.13 424.696C1247.5 425.437 1242.82 425.795 1238.13 425.766C1234.04 425.894 1229.96 425.214 1226.13 423.766C1223.12 422.566 1220.46 420.626 1218.39 418.126C1216.39 415.587 1214.97 412.642 1214.23 409.496C1213.36 405.895 1212.94 402.2 1212.98 398.496V365.406H1226.76V396.316C1226.76 402.636 1227.69 407.149 1229.54 409.856C1231.39 412.563 1234.64 413.916 1239.28 413.916C1240.95 413.916 1242.72 413.846 1244.58 413.696C1245.98 413.612 1247.36 413.421 1248.73 413.126V365.406H1262.51L1262.49 422.606Z" fill="white"/>
<path d="M1312 377.706C1310.44 377.229 1308.87 376.832 1307.27 376.516C1304.96 376.078 1302.62 375.87 1300.27 375.896C1297.42 375.969 1294.59 376.388 1291.84 377.146V424.406H1278.07V368.226C1281.34 367.085 1284.68 366.163 1288.07 365.466C1292.43 364.564 1296.88 364.129 1301.33 364.166C1302.24 364.166 1303.33 364.226 1304.52 364.336C1305.71 364.446 1306.95 364.606 1308.16 364.786C1309.37 364.966 1310.55 365.206 1311.69 365.466C1312.83 365.726 1313.69 365.976 1314.43 366.196L1312 377.706Z" fill="white"/>
<path d="M1376 394.857C1376.07 399.187 1375.39 403.496 1374 407.597C1372.75 411.231 1370.77 414.572 1368.19 417.417C1365.65 420.143 1362.56 422.297 1359.13 423.737C1355.43 425.27 1351.46 426.036 1347.46 425.987C1343.48 426.04 1339.53 425.274 1335.85 423.737C1332.44 422.29 1329.37 420.136 1326.85 417.417C1324.26 414.568 1322.26 411.229 1320.98 407.597C1319.54 403.507 1318.83 399.194 1318.88 394.857C1318.82 390.536 1319.53 386.239 1320.98 382.167C1322.28 378.55 1324.29 375.23 1326.9 372.407C1329.44 369.699 1332.53 367.565 1335.96 366.147C1339.6 364.649 1343.51 363.901 1347.45 363.947C1351.41 363.904 1355.34 364.652 1359.01 366.147C1362.43 367.551 1365.5 369.688 1368.01 372.407C1370.59 375.241 1372.59 378.558 1373.88 382.167C1375.33 386.238 1376.05 390.535 1376 394.857ZM1361.88 394.857C1361.88 388.984 1360.61 384.337 1358.07 380.917C1356.8 379.317 1355.18 378.025 1353.33 377.137C1351.49 376.249 1349.47 375.788 1347.43 375.788C1345.38 375.788 1343.36 376.249 1341.52 377.137C1339.67 378.025 1338.05 379.317 1336.78 380.917C1334.24 384.351 1332.97 388.997 1332.97 394.857C1332.97 400.717 1334.24 405.417 1336.78 408.957C1338.04 410.574 1339.66 411.882 1341.5 412.781C1343.35 413.681 1345.37 414.148 1347.43 414.148C1349.48 414.148 1351.5 413.681 1353.35 412.781C1355.19 411.882 1356.81 410.574 1358.07 408.957C1360.61 405.497 1361.88 400.797 1361.88 394.857Z" fill="white"/>
<path d="M1442.38 395.002C1442.42 399.204 1441.83 403.389 1440.61 407.412C1439.56 410.939 1437.84 414.232 1435.55 417.112C1433.33 419.834 1430.5 421.998 1427.29 423.432C1423.76 424.979 1419.93 425.747 1416.08 425.682C1413.47 425.714 1410.86 425.378 1408.34 424.682C1406.33 424.139 1404.38 423.382 1402.53 422.422V445.322H1388.75V367.332C1391.56 366.585 1395.01 365.872 1399.11 365.192C1403.41 364.502 1407.76 364.168 1412.11 364.192C1416.42 364.124 1420.7 364.853 1424.75 366.342C1428.33 367.679 1431.57 369.778 1434.26 372.492C1436.93 375.261 1438.97 378.568 1440.26 382.192C1441.72 386.302 1442.44 390.64 1442.38 395.002ZM1428.26 395.222C1428.26 389.135 1426.88 384.398 1424.11 381.012C1421.34 377.625 1416.88 375.932 1410.73 375.932C1409.44 375.932 1408.09 375.992 1406.73 376.102C1405.33 376.219 1403.94 376.467 1402.58 376.842V410.572C1404.09 411.547 1405.71 412.323 1407.42 412.882C1409.49 413.608 1411.66 413.97 1413.85 413.952C1418.86 413.952 1422.53 412.258 1424.85 408.872C1427.17 405.485 1428.31 400.925 1428.26 395.192V395.222Z" fill="white"/>
<path d="M1451.94 395.192C1451.85 390.538 1452.64 385.909 1454.28 381.552C1455.66 377.909 1457.77 374.588 1460.48 371.792C1463 369.236 1466.02 367.237 1469.36 365.922C1472.62 364.615 1476.1 363.937 1479.61 363.922C1487.81 363.922 1494.2 366.439 1498.79 371.472C1503.38 376.505 1505.67 384.029 1505.68 394.042V396.582C1505.68 396.582 1505.58 398.362 1505.51 399.112H1466.22C1466.6 403.852 1468.29 407.519 1471.29 410.112C1474.29 412.705 1478.62 414.002 1484.29 414.002C1487.37 414.028 1490.44 413.726 1493.45 413.102C1495.69 412.662 1497.88 412.02 1500 411.182L1501.82 422.352C1500.81 422.826 1499.76 423.224 1498.69 423.542C1497.19 423.996 1495.67 424.373 1494.13 424.672C1492.43 425.002 1490.59 425.292 1488.62 425.512C1486.63 425.74 1484.62 425.854 1482.62 425.852C1477.96 425.953 1473.33 425.169 1468.96 423.542C1465.32 422.158 1462.05 419.958 1459.39 417.112C1456.86 414.313 1454.96 411.006 1453.81 407.412C1452.55 403.462 1451.92 399.338 1451.94 395.192ZM1491.94 389.102C1491.95 387.288 1491.68 385.484 1491.14 383.752C1490.66 382.145 1489.86 380.65 1488.8 379.352C1487.78 378.111 1486.5 377.107 1485.05 376.412C1483.39 375.662 1481.57 375.296 1479.75 375.342C1477.83 375.302 1475.92 375.706 1474.18 376.522C1472.64 377.276 1471.26 378.334 1470.13 379.632C1469.02 380.932 1468.15 382.423 1467.57 384.032C1466.97 385.671 1466.55 387.371 1466.32 389.102H1491.94Z" fill="white"/>
<path d="M1511.38 445.399C1510.38 445.399 1509 445.299 1507.22 445.109C1505.61 444.966 1504.02 444.606 1502.5 444.039L1504.32 432.869C1506.27 433.435 1508.29 433.701 1510.32 433.659C1513.51 433.659 1515.74 432.739 1517.04 430.899C1518.34 429.059 1518.97 426.289 1518.97 422.609V365.409H1532.75V422.829C1532.75 430.509 1530.91 436.175 1527.23 439.829C1523.55 443.482 1518.27 445.339 1511.38 445.399ZM1534.26 348.159C1534.31 349.294 1534.11 350.427 1533.68 351.479C1533.25 352.531 1532.59 353.476 1531.76 354.249C1530.14 355.724 1528.03 356.529 1525.84 356.499C1523.63 356.537 1521.48 355.733 1519.84 354.249C1519 353.477 1518.35 352.532 1517.92 351.48C1517.48 350.428 1517.29 349.295 1517.34 348.159C1517.28 347.004 1517.47 345.85 1517.9 344.777C1518.33 343.704 1519 342.739 1519.84 341.949C1521.48 340.462 1523.63 339.654 1525.84 339.689C1528.03 339.662 1530.15 340.47 1531.76 341.949C1532.6 342.742 1533.26 343.708 1533.69 344.78C1534.12 345.852 1534.32 347.004 1534.26 348.159Z" fill="white"/>
<path d="M1564 414.595C1567.65 414.595 1570.3 414.165 1572 413.295C1572.81 412.881 1573.48 412.237 1573.92 411.444C1574.37 410.65 1574.57 409.742 1574.5 408.835C1574.5 407.868 1574.25 406.918 1573.78 406.07C1573.32 405.223 1572.64 404.506 1571.83 403.985C1569.07 402.242 1566.1 400.842 1563 399.815C1560.65 398.982 1558.35 398.02 1556.11 396.935C1554.15 396.005 1552.33 394.811 1550.7 393.385C1549.17 392.018 1547.96 390.345 1547.12 388.475C1546.18 386.247 1545.73 383.842 1545.81 381.425C1545.71 378.967 1546.2 376.52 1547.25 374.292C1548.29 372.064 1549.86 370.121 1551.81 368.625C1555.81 365.505 1561.28 363.945 1568.21 363.945C1571.57 363.947 1574.92 364.282 1578.21 364.945C1580.64 365.387 1583.04 366.008 1585.38 366.805L1582.88 377.855C1581 377.065 1579.06 376.442 1577.07 375.995C1574.38 375.399 1571.63 375.117 1568.87 375.155C1566.51 375.059 1564.17 375.539 1562.04 376.555C1561.23 376.946 1560.55 377.566 1560.08 378.339C1559.61 379.112 1559.39 380.004 1559.42 380.905C1559.4 381.795 1559.58 382.678 1559.93 383.495C1560.34 384.328 1560.95 385.046 1561.7 385.585C1562.73 386.34 1563.84 386.983 1565 387.505C1566.63 388.261 1568.3 388.929 1570 389.505C1572.84 390.528 1575.61 391.716 1578.31 393.065C1580.38 394.081 1582.28 395.41 1583.95 397.005C1585.39 398.409 1586.5 400.118 1587.19 402.005C1587.91 404.188 1588.25 406.478 1588.19 408.775C1588.19 414.415 1586.08 418.685 1581.87 421.585C1577.66 424.485 1571.64 425.932 1563.82 425.925C1559.57 426.036 1555.32 425.599 1551.18 424.625C1548.91 424.049 1546.67 423.355 1544.47 422.545L1546.86 411.145C1549.25 412.087 1551.71 412.878 1554.2 413.515C1557.41 414.296 1560.7 414.659 1564 414.595Z" fill="white"/>
<path d="M1613.39 388.427L1618.97 382.617C1620.97 380.544 1622.9 378.474 1624.77 376.407C1626.67 374.347 1628.48 372.347 1630.19 370.407C1631.9 368.467 1633.35 366.817 1634.56 365.407H1650.85C1647.06 369.627 1643.06 373.99 1638.85 378.497C1634.64 383.004 1630.42 387.404 1626.19 391.697C1628.71 393.821 1631.1 396.099 1633.34 398.517C1635.84 401.184 1638.27 404.024 1640.62 407.037C1642.97 410.05 1645.17 413.05 1647.21 416.037C1649.06 418.725 1650.77 421.509 1652.32 424.377H1636.38C1635.01 422.044 1633.43 419.6 1631.65 417.047C1629.87 414.494 1627.95 412.01 1625.9 409.597C1623.85 407.197 1621.76 404.924 1619.64 402.777C1617.7 400.792 1615.61 398.963 1613.38 397.307V424.377H1599.6V339.127L1613.38 336.867L1613.39 388.427Z" fill="white"/>
<path d="M1676.81 348.158C1676.86 349.295 1676.66 350.429 1676.23 351.481C1675.79 352.533 1675.14 353.477 1674.3 354.248C1672.69 355.728 1670.57 356.533 1668.38 356.498C1666.17 356.534 1664.02 355.73 1662.38 354.248C1661.55 353.476 1660.89 352.531 1660.46 351.479C1660.03 350.427 1659.83 349.294 1659.88 348.158C1659.82 347.004 1660.02 345.851 1660.45 344.779C1660.88 343.707 1661.54 342.742 1662.38 341.948C1664.02 340.464 1666.17 339.656 1668.38 339.688C1670.57 339.658 1672.69 340.466 1674.3 341.948C1675.15 342.738 1675.81 343.703 1676.24 344.776C1676.68 345.848 1676.87 347.003 1676.81 348.158ZM1675.32 424.408H1661.55V365.408H1675.32V424.408Z" fill="white"/>
<path d="M1686.25 395.192C1686.16 390.538 1686.95 385.909 1688.59 381.552C1689.97 377.909 1692.08 374.588 1694.79 371.792C1697.31 369.236 1700.33 367.237 1703.67 365.922C1706.93 364.615 1710.41 363.937 1713.92 363.922C1722.12 363.922 1728.52 366.439 1733.11 371.472C1737.7 376.505 1740 384.029 1739.99 394.042V396.582C1739.99 396.582 1739.89 398.362 1739.81 399.112H1700.54C1700.92 403.852 1702.61 407.519 1705.6 410.112C1708.59 412.705 1712.93 414.002 1718.6 414.002C1721.68 414.028 1724.75 413.726 1727.76 413.102C1730 412.664 1732.19 412.021 1734.31 411.182L1736.13 422.352C1735.12 422.826 1734.07 423.224 1733 423.542C1731.5 423.996 1729.98 424.373 1728.45 424.672C1726.74 425.002 1724.9 425.292 1722.92 425.512C1720.93 425.741 1718.92 425.854 1716.92 425.852C1712.26 425.953 1707.63 425.169 1703.26 423.542C1699.62 422.155 1696.35 419.956 1693.69 417.112C1691.16 414.315 1689.26 411.007 1688.12 407.412C1686.85 403.463 1686.22 399.338 1686.25 395.192ZM1726.25 389.102C1726.26 387.288 1725.99 385.484 1725.45 383.752C1724.97 382.147 1724.18 380.653 1723.12 379.352C1722.09 378.113 1720.81 377.11 1719.36 376.412C1717.7 375.662 1715.88 375.296 1714.06 375.342C1712.14 375.302 1710.23 375.706 1708.49 376.522C1706.96 377.282 1705.6 378.339 1704.49 379.632C1703.38 380.932 1702.51 382.423 1701.93 384.032C1701.33 385.671 1700.91 387.371 1700.68 389.102H1726.25Z" fill="white"/>
<path d="M678.42 552.599C675.038 553.572 671.598 554.327 668.12 554.859C663.82 555.539 659.473 555.874 655.12 555.859C650.811 555.925 646.527 555.2 642.48 553.719C638.904 552.384 635.662 550.285 632.98 547.569C630.312 544.8 628.266 541.493 626.98 537.869C625.524 533.758 624.809 529.421 624.87 525.059C624.818 520.764 625.415 516.486 626.64 512.369C627.696 508.802 629.457 505.483 631.82 502.609C634.081 499.922 636.922 497.782 640.13 496.349C643.688 494.827 647.53 494.077 651.4 494.149C653.979 494.1 656.551 494.437 659.03 495.149C660.993 495.733 662.9 496.489 664.73 497.409V469.119L678.5 466.859L678.42 552.599ZM638.91 524.739C638.91 530.739 640.353 535.456 643.24 538.889C646.126 542.323 650.126 544.036 655.24 544.029C657.12 544.045 659.001 543.948 660.87 543.739C662.153 543.603 663.429 543.396 664.69 543.119V509.279C663.18 508.308 661.554 507.532 659.85 506.969C657.781 506.244 655.602 505.882 653.41 505.899C648.403 505.899 644.736 507.589 642.41 510.969C640.083 514.349 638.916 518.939 638.91 524.739Z" fill="white"/>
<path d="M714.63 555.529C711.188 555.546 707.759 555.092 704.44 554.179C702.042 553.52 699.834 552.3 698 550.619C696.384 549.041 695.226 547.054 694.65 544.869C693.958 542.314 693.622 539.676 693.65 537.029V469.119L707.43 466.859V534.439C707.406 535.84 707.536 537.238 707.82 538.609C708.053 539.672 708.544 540.661 709.25 541.489C710.003 542.327 710.966 542.949 712.04 543.289C713.496 543.786 715.001 544.121 716.53 544.289L714.63 555.529Z" fill="white"/>
<path d="M748.67 493.941C752.572 493.84 756.462 494.412 760.17 495.631C763.004 496.583 765.564 498.21 767.63 500.371C769.537 502.477 770.909 505.012 771.63 507.761C772.458 510.869 772.861 514.075 772.83 517.291V553.051C770.703 553.504 767.496 554.051 763.21 554.691C758.399 555.358 753.546 555.675 748.69 555.641C745.399 555.677 742.115 555.341 738.9 554.641C736.183 554.069 733.609 552.957 731.33 551.371C729.23 549.856 727.545 547.838 726.43 545.501C725.167 542.705 724.562 539.657 724.66 536.591C724.563 533.608 725.252 530.653 726.66 528.021C727.969 525.706 729.826 523.749 732.07 522.321C734.491 520.792 737.172 519.721 739.98 519.161C744.636 518.177 749.42 517.947 754.15 518.481C755.955 518.708 757.744 519.042 759.51 519.481V517.231C759.516 515.706 759.325 514.187 758.94 512.711C758.566 511.316 757.883 510.024 756.94 508.931C755.914 507.796 754.627 506.927 753.19 506.401C751.304 505.748 749.315 505.443 747.32 505.501C744.386 505.479 741.456 505.703 738.56 506.171C736.355 506.509 734.183 507.038 732.07 507.751L730.36 496.701C732.856 495.914 735.406 495.309 737.99 494.891C741.514 494.258 745.089 493.94 748.67 493.941ZM749.81 544.821C753.051 544.897 756.291 544.67 759.49 544.141V529.001C758.4 528.711 757.295 528.484 756.18 528.321C754.597 528.091 752.999 527.98 751.4 527.991C749.857 527.993 748.317 528.103 746.79 528.321C745.331 528.523 743.912 528.944 742.58 529.571C741.376 530.138 740.342 531.01 739.58 532.101C738.784 533.324 738.385 534.763 738.44 536.221C738.44 539.461 739.44 541.691 741.52 542.931C744.059 544.305 746.926 544.958 749.81 544.821Z" fill="white"/>
<path d="M841.5 475.438C852.96 475.438 861.746 477.504 867.86 481.637C873.973 485.771 877.02 492.241 877 501.047C877.109 505.111 876.27 509.144 874.55 512.827C872.935 516.08 870.48 518.842 867.44 520.827C863.961 523.048 860.098 524.598 856.05 525.397C850.993 526.435 845.841 526.927 840.68 526.867H833.51V554.397H819.18V477.397C822.835 476.603 826.546 476.092 830.28 475.867C834.34 475.581 838.08 475.438 841.5 475.438ZM842.5 487.727C838.86 487.727 835.86 487.848 833.5 488.068V514.697H840.44C847.353 514.697 852.666 513.738 856.38 511.818C860.093 509.898 861.966 506.267 862 500.927C862.077 498.692 861.566 496.475 860.52 494.497C859.555 492.791 858.136 491.386 856.42 490.438C854.486 489.395 852.39 488.689 850.22 488.348C847.675 487.924 845.099 487.716 842.52 487.727H842.5Z" fill="white"/>
<path d="M940.55 524.845C940.622 529.175 939.945 533.485 938.55 537.585C937.307 541.22 935.334 544.562 932.75 547.405C930.213 550.131 927.124 552.285 923.69 553.725C919.988 555.267 916.01 556.04 912 555.995C908.017 556.047 904.065 555.282 900.39 553.745C896.979 552.294 893.913 550.141 891.39 547.425C888.804 544.573 886.812 541.235 885.53 537.605C884.086 533.515 883.376 529.202 883.43 524.865C883.373 520.544 884.084 516.247 885.53 512.175C886.828 508.557 888.841 505.238 891.45 502.415C893.99 499.707 897.079 497.573 900.51 496.155C904.153 494.657 908.061 493.909 912 493.955C915.961 493.912 919.891 494.66 923.56 496.155C926.999 497.553 930.089 499.69 932.61 502.415C935.192 505.248 937.188 508.566 938.48 512.175C939.913 516.243 940.614 520.533 940.55 524.845ZM926.43 524.845C926.43 518.978 925.16 514.335 922.62 510.915C921.347 509.312 919.729 508.016 917.886 507.126C916.043 506.236 914.022 505.773 911.975 505.773C909.928 505.773 907.907 506.236 906.064 507.126C904.221 508.016 902.603 509.312 901.33 510.915C898.79 514.335 897.52 518.978 897.52 524.845C897.52 530.712 898.79 535.412 901.33 538.945C902.594 540.562 904.209 541.87 906.053 542.769C907.898 543.669 909.923 544.136 911.975 544.136C914.027 544.136 916.052 543.669 917.897 542.769C919.741 541.87 921.356 540.562 922.62 538.945C925.16 535.485 926.43 530.785 926.43 524.845Z" fill="white"/>
<path d="M971.86 555.529C968.418 555.545 964.989 555.091 961.67 554.179C959.274 553.52 957.07 552.3 955.24 550.619C953.624 549.039 952.464 547.053 951.88 544.869C951.193 542.313 950.857 539.676 950.88 537.029V469.119L964.66 466.859V534.439C964.633 535.84 964.767 537.239 965.06 538.609C965.289 539.671 965.777 540.661 966.48 541.489C967.235 542.325 968.198 542.946 969.27 543.289C970.73 543.784 972.238 544.12 973.77 544.289L971.86 555.529Z" fill="white"/>
<path d="M1001 544.587C1004.64 544.587 1007.31 544.155 1009 543.288C1009.81 542.877 1010.48 542.234 1010.93 541.442C1011.37 540.65 1011.57 539.743 1011.5 538.837C1011.5 537.87 1011.25 536.919 1010.79 536.072C1010.32 535.224 1009.65 534.507 1008.83 533.988C1006.07 532.239 1003.11 530.834 1000.01 529.807C997.662 528.976 995.361 528.015 993.12 526.928C991.159 526.004 989.338 524.808 987.71 523.377C986.179 522.013 984.955 520.34 984.12 518.467C983.187 516.237 982.74 513.834 982.81 511.417C982.708 508.959 983.2 506.512 984.244 504.283C985.289 502.055 986.855 500.112 988.81 498.617C992.81 495.497 998.273 493.938 1005.2 493.938C1008.56 493.941 1011.91 494.275 1015.2 494.938C1017.63 495.377 1020.03 495.998 1022.37 496.797L1019.87 507.848C1017.99 507.061 1016.05 506.437 1014.06 505.987C1011.37 505.391 1008.62 505.11 1005.87 505.147C1003.51 505.049 1001.16 505.533 999.03 506.557C998.22 506.948 997.541 507.568 997.077 508.339C996.614 509.11 996.385 509.998 996.42 510.897C996.402 511.787 996.576 512.672 996.93 513.488C997.334 514.32 997.939 515.038 998.69 515.577C999.719 516.332 1000.83 516.975 1001.99 517.497C1003.62 518.253 1005.29 518.921 1006.99 519.497C1009.83 520.52 1012.61 521.709 1015.31 523.057C1017.38 524.076 1019.28 525.405 1020.94 526.997C1022.38 528.403 1023.48 530.111 1024.18 531.997C1024.9 534.179 1025.24 536.47 1025.18 538.767C1025.18 544.407 1023.07 548.677 1018.86 551.577C1014.65 554.477 1008.63 555.925 1000.81 555.918C996.562 556.028 992.317 555.59 988.18 554.617C985.905 554.043 983.662 553.349 981.46 552.538L983.85 541.137C986.248 542.08 988.703 542.872 991.2 543.507C994.406 544.289 997.7 544.652 1001 544.587Z" fill="white"/>
<path d="M1050.42 518.419C1052.17 516.609 1054.02 514.679 1056 512.609C1057.98 510.539 1059.91 508.469 1061.81 506.399C1063.71 504.329 1065.5 502.339 1067.21 500.399C1068.92 498.459 1070.38 496.799 1071.6 495.399H1087.88C1084.09 499.606 1080.09 503.966 1075.88 508.479C1071.67 512.993 1067.45 517.393 1063.21 521.679C1065.74 523.804 1068.13 526.085 1070.37 528.509C1072.87 531.176 1075.29 534.013 1077.64 537.019C1079.99 540.026 1082.18 543.026 1084.23 546.019C1086.08 548.709 1087.78 551.492 1089.34 554.359H1073.4C1072.03 552.033 1070.45 549.589 1068.68 547.029C1066.89 544.479 1064.97 542.029 1062.93 539.589C1060.89 537.149 1058.79 534.899 1056.66 532.759C1054.72 530.777 1052.62 528.948 1050.4 527.289V554.399H1036.63V469.119L1050.4 466.859L1050.42 518.419Z" fill="white"/>
<path d="M1114.75 478.151C1114.8 479.287 1114.6 480.421 1114.17 481.473C1113.73 482.525 1113.08 483.47 1112.24 484.241C1110.63 485.722 1108.51 486.527 1106.32 486.491C1104.11 486.531 1101.96 485.726 1100.32 484.241C1099.48 483.469 1098.83 482.525 1098.4 481.473C1097.96 480.421 1097.77 479.287 1097.82 478.151C1097.76 476.996 1097.95 475.842 1098.38 474.769C1098.81 473.696 1099.48 472.731 1100.32 471.941C1101.96 470.453 1104.11 469.645 1106.32 469.681C1108.51 469.648 1110.63 470.457 1112.24 471.941C1113.09 472.731 1113.75 473.696 1114.18 474.768C1114.62 475.841 1114.81 476.995 1114.75 478.151ZM1113.27 554.401H1099.49V495.401H1113.27V554.401Z" fill="white"/>
<path d="M1215.41 484.999C1216.62 489.059 1217.92 493.289 1219.28 497.689C1220.64 502.089 1222.07 506.489 1223.55 510.889C1225.03 515.289 1226.55 519.609 1227.99 523.889C1229.43 528.169 1230.89 532.139 1232.26 535.889C1233.4 531.829 1234.5 527.412 1235.56 522.639C1236.62 517.865 1237.68 512.902 1238.75 507.749C1239.81 502.602 1240.85 497.355 1241.88 492.009C1242.91 486.662 1243.87 481.399 1244.78 476.219H1259.59C1256.92 490.359 1253.97 503.952 1250.72 516.999C1247.47 530.045 1243.83 542.512 1239.8 554.399H1226C1220.12 539.212 1214.43 522.632 1208.92 504.659C1206.11 513.745 1203.26 522.392 1200.37 530.599C1197.48 538.805 1194.6 546.739 1191.71 554.399H1178C1173.91 542.519 1170.25 530.055 1167 517.009C1163.75 503.962 1160.82 490.369 1158.2 476.229H1173.56C1174.48 481.335 1175.45 486.562 1176.47 491.909C1177.49 497.255 1178.55 502.499 1179.66 507.639C1180.75 512.799 1181.88 517.779 1183.01 522.639C1184.14 527.499 1185.29 531.889 1186.43 535.949C1187.87 532.122 1189.33 528.082 1190.82 523.829C1192.31 519.575 1193.77 515.242 1195.2 510.829C1196.64 506.429 1198.02 502.049 1199.35 497.689C1200.68 493.329 1201.91 489.119 1203.06 485.059L1215.41 484.999Z" fill="white"/>
<path d="M1284.52 544.587C1288.16 544.587 1290.83 544.155 1292.52 543.288C1293.33 542.877 1294 542.234 1294.45 541.442C1294.89 540.65 1295.09 539.743 1295.02 538.837C1295.02 537.87 1294.77 536.919 1294.31 536.072C1293.84 535.224 1293.17 534.507 1292.35 533.988C1289.59 532.237 1286.63 530.832 1283.53 529.807C1281.18 528.974 1278.88 528.014 1276.64 526.928C1274.68 526.004 1272.86 524.808 1271.23 523.377C1269.7 522.011 1268.48 520.338 1267.64 518.467C1266.71 516.237 1266.26 513.834 1266.33 511.417C1266.23 508.959 1266.72 506.512 1267.76 504.283C1268.81 502.055 1270.37 500.112 1272.33 498.617C1276.33 495.497 1281.79 493.938 1288.72 493.938C1292.08 493.941 1295.43 494.275 1298.72 494.938C1301.15 495.377 1303.55 495.998 1305.89 496.797L1303.39 507.848C1301.51 507.061 1299.57 506.437 1297.58 505.987C1294.89 505.391 1292.14 505.11 1289.39 505.147C1287.03 505.05 1284.68 505.534 1282.55 506.557C1281.74 506.948 1281.06 507.568 1280.6 508.339C1280.13 509.11 1279.91 509.998 1279.94 510.897C1279.92 511.787 1280.1 512.672 1280.45 513.488C1280.85 514.32 1281.46 515.038 1282.21 515.577C1283.24 516.33 1284.35 516.973 1285.51 517.497C1287.14 518.254 1288.81 518.922 1290.51 519.497C1293.35 520.522 1296.12 521.71 1298.82 523.057C1300.89 524.076 1302.79 525.405 1304.45 526.997C1305.89 528.403 1306.99 530.111 1307.69 531.997C1308.41 534.179 1308.75 536.47 1308.69 538.767C1308.69 544.407 1306.58 548.677 1302.37 551.577C1298.16 554.477 1292.16 555.925 1284.37 555.918C1280.12 556.028 1275.88 555.59 1271.74 554.617C1269.46 554.043 1267.22 553.349 1265.02 552.538L1267.41 541.137C1269.81 542.08 1272.26 542.872 1274.76 543.507C1277.95 544.285 1281.23 544.648 1284.52 544.587Z" fill="white"/>
<path d="M1317.08 525C1317.05 520.832 1317.74 516.69 1319.13 512.76C1320.41 509.114 1322.4 505.759 1324.99 502.89C1327.58 500.075 1330.75 497.846 1334.27 496.35C1338.16 494.721 1342.35 493.914 1346.57 493.98C1352.03 493.937 1357.44 494.956 1362.51 496.98L1359.51 508.15C1357.76 507.429 1355.95 506.864 1354.1 506.46C1351.98 505.998 1349.82 505.77 1347.66 505.78C1342.28 505.78 1338.18 507.447 1335.37 510.78C1332.56 514.114 1331.17 518.854 1331.2 525C1331.2 530.874 1332.53 535.517 1335.2 538.93C1337.87 542.344 1342.35 544.057 1348.64 544.07C1350.97 544.071 1353.29 543.843 1355.58 543.39C1357.6 543.011 1359.58 542.445 1361.5 541.7L1363.44 552.98C1361.24 553.931 1358.92 554.603 1356.55 554.98C1353.42 555.586 1350.23 555.887 1347.04 555.88C1342.51 555.979 1338.01 555.195 1333.78 553.57C1330.22 552.163 1327.02 549.965 1324.44 547.14C1321.92 544.295 1320.04 540.948 1318.92 537.32C1317.67 533.335 1317.05 529.178 1317.08 525Z" fill="white"/>
<path d="M1374.12 554.399V469.119L1387.9 466.859V496.079C1389.63 495.504 1391.4 495.053 1393.19 494.729C1395.17 494.352 1397.18 494.161 1399.19 494.159C1403.25 494.04 1407.29 494.72 1411.09 496.159C1414.04 497.329 1416.65 499.232 1418.66 501.689C1420.61 504.194 1421.98 507.101 1422.66 510.199C1423.5 513.826 1423.9 517.538 1423.86 521.259V554.399H1410.1V523.399C1410.14 520.699 1409.93 518.001 1409.47 515.339C1409.18 513.415 1408.5 511.571 1407.47 509.919C1406.53 508.557 1405.2 507.512 1403.65 506.919C1401.76 506.22 1399.75 505.881 1397.73 505.919C1395.86 505.921 1393.99 506.109 1392.15 506.479C1390.73 506.735 1389.32 507.069 1387.94 507.479V554.399H1374.12Z" fill="white"/>
<path d="M1491.05 524.85C1491.12 529.18 1490.44 533.49 1489.05 537.59C1487.8 541.223 1485.83 544.564 1483.25 547.41C1480.71 550.135 1477.62 552.29 1474.19 553.73C1470.49 555.262 1466.52 556.028 1462.52 555.98C1458.54 556.032 1454.59 555.266 1450.91 553.73C1447.5 552.279 1444.43 550.125 1441.91 547.41C1439.32 544.558 1437.33 541.219 1436.05 537.59C1434.6 533.501 1433.88 529.188 1433.94 524.85C1433.88 520.528 1434.6 516.23 1436.05 512.16C1437.35 508.542 1439.36 505.222 1441.97 502.4C1444.49 499.7 1447.56 497.566 1450.97 496.14C1454.62 494.641 1458.53 493.893 1462.47 493.94C1466.43 493.897 1470.36 494.645 1474.03 496.14C1477.45 497.546 1480.52 499.683 1483.03 502.4C1485.61 505.231 1487.6 508.549 1488.89 512.16C1490.36 516.227 1491.09 520.525 1491.05 524.85ZM1476.93 524.85C1476.93 518.983 1475.66 514.34 1473.12 510.92C1471.85 509.316 1470.23 508.021 1468.39 507.131C1466.54 506.24 1464.52 505.778 1462.47 505.778C1460.43 505.778 1458.41 506.24 1456.56 507.131C1454.72 508.021 1453.1 509.316 1451.83 510.92C1449.28 514.34 1448.01 518.983 1448.01 524.85C1448.01 530.716 1449.28 535.416 1451.83 538.95C1453.09 540.566 1454.71 541.874 1456.55 542.774C1458.4 543.673 1460.42 544.141 1462.47 544.141C1464.53 544.141 1466.55 543.673 1468.4 542.774C1470.24 541.874 1471.86 540.566 1473.12 538.95C1475.66 535.49 1476.93 530.79 1476.93 524.85Z" fill="white"/>
<path d="M1552.76 552.599C1545.17 554.765 1537.31 555.865 1529.42 555.869C1525.11 555.935 1520.83 555.21 1516.78 553.729C1513.2 552.392 1509.96 550.293 1507.27 547.579C1504.6 544.809 1502.56 541.502 1501.27 537.879C1499.81 533.769 1499.09 529.431 1499.16 525.069C1499.11 520.774 1499.7 516.496 1500.93 512.379C1501.99 508.812 1503.75 505.493 1506.11 502.619C1508.37 499.929 1511.21 497.789 1514.42 496.359C1517.98 494.837 1521.82 494.087 1525.69 494.159C1528.27 494.11 1530.84 494.447 1533.32 495.159C1535.28 495.741 1537.18 496.498 1539.01 497.419V469.119L1552.79 466.859L1552.76 552.599ZM1513.25 524.739C1513.25 530.739 1514.69 535.456 1517.58 538.889C1520.47 542.323 1524.47 544.036 1529.58 544.029C1531.46 544.045 1533.35 543.948 1535.22 543.739C1536.5 543.602 1537.77 543.395 1539.03 543.119V509.279C1537.52 508.306 1535.89 507.53 1534.19 506.969C1532.12 506.243 1529.95 505.881 1527.76 505.899C1522.75 505.899 1519.09 507.589 1516.76 510.969C1514.43 514.349 1513.26 518.939 1513.25 524.739Z" fill="white"/>
<path d="M1568.46 497.316C1571.87 496.408 1575.33 495.694 1578.82 495.176C1583.49 494.471 1588.21 494.137 1592.94 494.176C1597.09 494.062 1601.22 494.741 1605.12 496.176C1608.15 497.325 1610.83 499.228 1612.92 501.706C1614.92 504.211 1616.32 507.144 1617.01 510.276C1617.84 513.883 1618.24 517.575 1618.21 521.276V554.396H1604.44V523.396C1604.47 520.696 1604.26 517.999 1603.81 515.336C1603.52 513.412 1602.84 511.567 1601.81 509.916C1600.86 508.545 1599.51 507.499 1597.94 506.916C1596.02 506.218 1593.98 505.879 1591.94 505.916C1590.12 505.921 1588.29 506.031 1586.48 506.246C1584.58 506.476 1583.17 506.666 1582.26 506.816V554.416H1568.49L1568.46 497.316Z" fill="white"/>
<path d="M1648.13 478.151C1648.18 479.288 1647.98 480.422 1647.55 481.474C1647.12 482.525 1646.46 483.47 1645.62 484.241C1644.01 485.72 1641.89 486.525 1639.7 486.491C1637.49 486.533 1635.34 485.728 1633.7 484.241C1632.86 483.47 1632.21 482.525 1631.77 481.474C1631.34 480.422 1631.14 479.288 1631.19 478.151C1631.13 476.995 1631.32 475.841 1631.76 474.768C1632.19 473.696 1632.85 472.731 1633.7 471.941C1635.34 470.451 1637.49 469.643 1639.7 469.681C1641.89 469.65 1644.01 470.459 1645.62 471.941C1646.47 472.731 1647.13 473.696 1647.56 474.768C1648 475.841 1648.19 476.995 1648.13 478.151ZM1646.65 554.401H1632.87V495.401H1646.65V554.401Z" fill="white"/>
<path d="M1659.51 525.186C1659.42 520.529 1660.21 515.896 1661.85 511.536C1663.23 507.894 1665.34 504.572 1668.05 501.776C1670.57 499.221 1673.59 497.221 1676.93 495.906C1680.19 494.6 1683.67 493.921 1687.18 493.906C1695.38 493.906 1701.77 496.426 1706.36 501.466C1710.95 506.506 1713.24 514.026 1713.25 524.026C1713.25 524.776 1713.25 525.626 1713.19 526.566C1713.13 527.506 1713.1 528.346 1713.03 529.106H1673.74C1674.12 533.839 1675.81 537.506 1678.81 540.106C1681.81 542.706 1686.14 544.006 1691.81 544.006C1694.89 544.034 1697.96 543.729 1700.97 543.096C1703.21 542.657 1705.4 542.014 1707.52 541.176L1709.34 552.346C1708.33 552.825 1707.28 553.223 1706.21 553.536C1704.71 553.99 1703.19 554.367 1701.65 554.666C1699.95 554.996 1698.11 555.286 1696.13 555.506C1694.14 555.735 1692.13 555.849 1690.13 555.846C1685.47 555.947 1680.84 555.163 1676.47 553.536C1672.83 552.15 1669.56 549.95 1666.9 547.106C1664.37 544.307 1662.47 541 1661.32 537.406C1660.08 533.453 1659.47 529.329 1659.51 525.186ZM1699.51 519.096C1699.52 517.279 1699.25 515.472 1698.71 513.736C1698.23 512.129 1697.43 510.634 1696.37 509.336C1695.35 508.095 1694.07 507.092 1692.62 506.396C1690.96 505.647 1689.14 505.282 1687.32 505.326C1685.39 505.286 1683.48 505.693 1681.74 506.516C1680.21 507.271 1678.85 508.325 1677.74 509.616C1676.62 510.914 1675.76 512.405 1675.18 514.016C1674.58 515.658 1674.16 517.362 1673.93 519.096H1699.51Z" fill="white"/>
<path d="M1719.17 575.391C1718.17 575.391 1716.8 575.291 1715.01 575.101C1713.4 574.957 1711.81 574.597 1710.29 574.031L1712.11 562.871C1714.06 563.425 1716.08 563.688 1718.11 563.651C1721.3 563.651 1723.53 562.731 1724.82 560.891C1726.12 559.051 1726.76 556.281 1726.76 552.601V495.411H1740.54V552.831C1740.54 560.498 1738.7 566.164 1735.02 569.831C1731.34 573.498 1726.06 575.351 1719.17 575.391ZM1742.06 478.151C1742.11 479.287 1741.91 480.421 1741.48 481.473C1741.04 482.525 1740.39 483.47 1739.55 484.241C1737.94 485.72 1735.82 486.525 1733.63 486.491C1731.42 486.531 1729.27 485.726 1727.63 484.241C1726.79 483.47 1726.14 482.525 1725.7 481.473C1725.27 480.421 1725.07 479.287 1725.12 478.151C1725.06 476.995 1725.25 475.841 1725.69 474.768C1726.12 473.696 1726.78 472.731 1727.63 471.941C1729.27 470.453 1731.42 469.645 1733.63 469.681C1735.82 469.65 1737.94 470.459 1739.55 471.941C1740.4 472.731 1741.06 473.696 1741.49 474.768C1741.93 475.841 1742.12 476.995 1742.06 478.151Z" fill="white"/>
</svg>
